<?xml version="1.0" encoding="UTF-8"?>
<svg version="1.1" xmlns="http://www.w3.org/2000/svg" width="5732" height="2481">
<path d="M0 0 C0 637.89 0 1275.78 0 1933 C-38.28 1933 -76.56 1933 -116 1933 C-116.39443738 1898.53161347 -116.39443738 1898.53161347 -116.5361411 1885.95341843 C-116.55006795 1884.71725392 -116.55006795 1884.71725392 -116.56427615 1883.45611638 C-116.99774911 1844.95030026 -117.41471111 1806.44430247 -117.82495117 1767.93823242 C-117.8364279 1766.86121443 -117.84790464 1765.78419644 -117.85972915 1764.67454153 C-119.09073732 1649.08516608 -120.15086022 1533.49570121 -120.86946106 1417.90193176 C-120.88549787 1415.32917793 -120.9015348 1412.75642411 -120.91757186 1410.18367028 C-121.2496127 1356.834076 -121.55910593 1303.48436595 -121.84049667 1250.13448135 C-121.85116749 1248.11136939 -121.86183971 1246.08825745 -121.87251289 1244.0651455 C-121.87603773 1243.39694719 -121.87956257 1242.72874887 -121.88319423 1242.04030212 C-122.01577239 1216.91915459 -122.15347179 1191.79803546 -122.29423078 1166.67693251 C-122.30951775 1163.94778939 -122.32474635 1161.21864596 -122.3399219 1158.48950222 C-122.69740508 1094.20845569 -123.14573937 1029.92994302 -123.89642334 965.65216064 C-123.90822832 964.64051433 -123.90822832 964.64051433 -123.92027178 963.60843072 C-124.18206416 941.18626659 -124.45284602 918.76421087 -124.72487065 896.34216892 C-124.97065229 876.08098058 -125.21319949 855.81975833 -125.44510937 835.55840588 C-125.45273173 834.8925759 -125.46035409 834.22674591 -125.46820742 833.54073927 C-125.94613551 791.71877787 -126.28325953 749.89706973 -126.48107624 708.07273579 C-126.49031104 706.12961952 -126.49031104 706.12961952 -126.4997324 704.14724838 C-126.63391439 675.68365729 -126.73676726 647.22004182 -126.81011303 618.75623168 C-126.84019195 607.29673425 -126.87476429 595.83725117 -126.91088295 584.37777138 C-126.91472707 583.12371962 -126.9185712 581.86966786 -126.92253181 580.57761453 C-127.04784807 540.42143969 -127.53623862 500.28013321 -128.22245397 460.12993275 C-128.91422485 419.55468052 -129.23488411 378.993726 -129.06675861 338.41245108 C-129.04341668 332.75671331 -129.0241629 327.10096844 -129.00738335 321.4452076 C-129.00394709 320.33689051 -129.00051083 319.22857343 -128.99697045 318.08667098 C-128.95642039 301.83819249 -129.23608224 285.61814563 -129.70862961 269.3771286 C-130.38571075 245.51876875 -130.57483049 221.70702955 -129.82926941 197.84757996 C-129.80129547 196.92149924 -129.77332154 195.99541852 -129.74449991 195.04127474 C-127.77709853 133.41759753 -108.76090971 94.29316701 -63.8883802 51.93464882 C-8.27278238 0 -8.27278238 0 0 0 Z " fill="#F26E21" transform="translate(685,177)"/>
<path d="M0 0 C0 573.21 0 1146.42 0 1737 C-38.61 1737 -77.22 1737 -117 1737 C-117.39443738 1706.29020175 -117.39443738 1706.29020175 -117.5361411 1695.08334893 C-117.54542567 1694.34908814 -117.55471023 1693.61482735 -117.56427615 1692.85831623 C-117.99776673 1658.54918064 -118.41472368 1624.23984087 -118.82495117 1589.93041992 C-118.8364279 1588.9707534 -118.84790464 1588.01108687 -118.85972915 1587.02233954 C-120.09102669 1484.00325044 -121.15106953 1380.98406138 -121.86946106 1277.96003723 C-121.88549787 1275.66638296 -121.9015348 1273.37272868 -121.91757186 1271.07907441 C-122.25382673 1222.91331296 -122.56623275 1174.74742046 -122.85116299 1126.58132836 C-122.99436116 1102.37865991 -123.14213214 1078.17602107 -123.29423078 1053.97340691 C-123.31714483 1050.3229931 -123.33992825 1046.67257849 -123.36270622 1043.02216383 C-123.71377364 986.94395393 -124.16168489 930.8686252 -124.89642334 874.79400635 C-124.9121667 873.59234135 -124.92791006 872.39067636 -124.94413049 871.15259728 C-125.19848952 851.78355032 -125.46112908 832.41461562 -125.72487065 813.04569452 C-126.48628379 757.11895773 -127.18440118 701.19448633 -127.48107624 645.26307392 C-127.48723277 644.10798607 -127.49338931 642.95289822 -127.4997324 641.76280771 C-127.63393181 616.37907138 -127.73677655 590.99530768 -127.81011303 565.6113256 C-127.84019084 555.39090445 -127.87476334 545.1704994 -127.91088295 534.95009804 C-127.91664914 533.2724425 -127.91664914 533.2724425 -127.92253181 531.56089494 C-128.04773753 495.77908989 -128.53571083 460.01400707 -129.22245397 424.23891744 C-129.91508412 388.06782154 -130.23466858 351.91278245 -130.06675861 315.73491767 C-130.04341846 310.68679794 -130.02416399 305.63867025 -130.00738335 300.59052467 C-130.00394709 299.60132566 -130.00051083 298.61212664 -129.99697045 297.59295189 C-129.9564963 283.11900847 -130.23522297 268.67708715 -130.70862961 254.21154785 C-131.38798308 232.9262419 -131.57305937 211.69326682 -130.82926941 190.40666199 C-130.80122923 189.577414 -130.77318904 188.74816602 -130.74429916 187.89378931 C-128.57276004 127.14300819 -104.78053807 90.28206386 -60.8599013 49.27893748 C-45.31124512 34.86792964 -29.25536045 21.07424823 -12.57651311 7.98663408 C-11.77678139 7.35822635 -11.77678139 7.35822635 -10.96089348 6.71712352 C-2.37296868 0 -2.37296868 0 0 0 Z " fill="#F9A121" transform="translate(490,373)"/>
<path d="M0 0 C0 508.53 0 1017.06 0 1541 C-38.61 1541 -77.22 1541 -117 1541 C-117.93395017 1476.59725304 -117.93395017 1476.59725304 -118.27746582 1451.78164673 C-118.28807271 1451.01585929 -118.2986796 1450.25007186 -118.30960791 1449.46107874 C-118.48286162 1436.94827506 -118.6544949 1424.43544951 -118.82495117 1411.92260742 C-118.8364279 1411.08029236 -118.84790464 1410.2379773 -118.85972915 1409.37013754 C-120.09139598 1318.92138637 -121.15133605 1228.4725219 -121.86946106 1138.0181427 C-121.88549787 1136.00358798 -121.9015348 1133.98903326 -121.91757186 1131.97447854 C-122.25385048 1089.6666387 -122.56625382 1047.35864951 -122.85116299 1005.05043292 C-122.99435755 983.79021718 -123.14212837 962.53003519 -123.29423078 941.26988131 C-123.31714491 938.06333622 -123.33992829 934.85679023 -123.36270622 931.65024417 C-123.71363971 882.40965372 -124.16128727 833.17234652 -124.89642334 783.93585205 C-124.9121667 782.88129682 -124.92791006 781.82674159 -124.94413049 780.74023014 C-125.19847919 763.74313619 -125.46112271 746.7461704 -125.72487065 729.74922012 C-126.48661055 680.65153141 -127.18460571 631.55643331 -127.48107624 582.45341206 C-127.48723277 581.4386472 -127.49338931 580.42388235 -127.4997324 579.37836704 C-127.63395402 557.07448821 -127.73678838 534.7705782 -127.81011303 512.46641952 C-127.84018943 503.48507429 -127.87476211 494.5037474 -127.91088295 485.5224247 C-127.91472707 484.53960241 -127.9185712 483.55678013 -127.92253181 482.54417535 C-128.03988605 453.07305618 -128.45720659 423.61892551 -129.0962135 394.15472915 C-130.06918352 349.08474673 -130.56047393 304.03732579 -130.05541992 258.95776367 C-130.04638863 258.10320873 -130.03735733 257.24865378 -130.02805236 256.36820323 C-128.40930284 104.4842484 -128.40930284 104.4842484 -73.16551341 50.04515456 C-20.94833253 0 -20.94833253 0 0 0 Z " fill="#F2D30F" transform="translate(294,569)"/>
<path d="M0 0 C336.21366025 0 336.21366025 0 389 51 C389.80546265 51.77259155 389.80546265 51.77259155 390.62719727 52.56079102 C423.93005825 85.06281807 436.44063314 135.34174269 437.14341736 180.51516724 C437.18553893 184.51019802 437.19281123 188.50477565 437.1875 192.5 C437.18689575 193.34071045 437.1862915 194.1814209 437.18566895 195.04760742 C437.16083058 207.79029285 436.89157948 220.37576302 435 233 C434.87109375 233.87398437 434.7421875 234.74796875 434.609375 235.6484375 C428.88518524 273.06767797 415.22286748 306.30101084 389 334 C388.18015625 334.88429688 387.3603125 335.76859375 386.515625 336.6796875 C373.54844446 350.22233463 357.08739107 361.29392167 340 369 C339.34 369 338.68 369 338 369 C338.22848633 369.50595703 338.45697266 370.01191406 338.69238281 370.53320312 C346.49648134 387.89072468 353.80556392 405.44595386 361.10400391 423.02026367 C366.89843645 436.97066198 372.73827473 450.90080278 378.625 464.8125 C384.78032747 479.36243593 390.90780869 493.92351261 397 508.5 C402.83752363 522.46618823 408.70095332 536.42111674 414.59310913 550.36434937 C415.79722541 553.21385315 417.00086308 556.06355862 418.2043457 558.91333008 C422.64723484 569.4343692 422.64723484 569.4343692 427.09667969 579.95263672 C428.67724682 583.68547309 430.25464744 587.41963004 431.82943726 591.15490723 C432.39587003 592.49668225 432.96357333 593.83792171 433.53262329 595.17858887 C434.29973239 596.98617559 435.06212444 598.79576204 435.82421875 600.60546875 C436.24791748 601.60731201 436.67161621 602.60915527 437.1081543 603.64135742 C438 606 438 606 438 608 C401.7 608 365.4 608 328 608 C324.04 598.1 320.08 588.2 316 578 C312.89442372 570.35203985 309.78734229 562.70503711 306.66595459 555.06356812 C304.28406006 549.23214251 301.90569474 543.3992778 299.52734375 537.56640625 C299.05343201 536.40426102 298.57952026 535.24211578 298.09124756 534.04475403 C293.49145915 522.76065822 288.92135056 511.4646592 284.35638428 500.16644287 C280.27856739 490.07587561 276.18493516 479.99199532 272.06640625 469.91796875 C271.64029053 468.87543442 271.2141748 467.83290009 270.77514648 466.7587738 C268.73628411 461.77145047 266.69567788 456.78485323 264.65185547 451.79956055 C256.65139137 432.24446631 248.84791758 412.61979395 241 393 C194.14 392.67 147.28 392.34 99 392 C99 463.28 99 534.56 99 608 C66.33 608 33.66 608 0 608 C0 407.36 0 206.72 0 0 Z M99 86 C99 158.6 99 231.2 99 306 C122.05875 306.04125 145.1175 306.0825 168.875 306.125 C176.12452637 306.14320801 183.37405273 306.16141602 190.84326172 306.18017578 C197.4079733 306.18686944 197.4079733 306.18686944 203.97268677 306.19088745 C206.870261 306.19273192 209.76776006 306.20015045 212.66531372 306.21115112 C246.2284159 306.33276456 279.9905339 305.30009076 305.8125 280.8125 C330.38684668 254.86689756 335.74239459 219.29495169 335.08886719 184.94726562 C334.26941977 157.77042726 326.31538371 129.79816773 306.46923828 110.37988281 C280.86295368 86.33090964 246.47495908 85.51239925 213.38943481 85.69615936 C209.75066417 85.71350992 206.11195709 85.71406288 202.47314453 85.71618652 C191.89872581 85.73179919 181.324359 85.77368262 170.75 85.8125 C147.0725 85.874375 123.395 85.93625 99 86 Z " fill="#0E6333" transform="translate(2250,659)"/>
<path d="M0 0 C326.93700787 0 326.93700787 0 380 46 C381.22589844 47.04414062 381.22589844 47.04414062 382.4765625 48.109375 C406.67897574 69.23965529 421.6667444 97.94341888 432 128 C432.26474121 128.75071777 432.52948242 129.50143555 432.80224609 130.27490234 C445.2179052 165.74709222 450.30659609 203.66714047 453 241 C453.09643799 242.30042236 453.19287598 243.60084473 453.29223633 244.94067383 C454.30061004 260.0472992 454.18731423 275.19466925 454.18530273 290.32739258 C454.18522219 293.4573351 454.192063 296.58712899 454.20581055 299.71704102 C454.32859668 328.16592343 453.41613163 356.52339964 450.1875 384.8125 C450.06202789 385.94103897 450.06202789 385.94103897 449.934021 387.09237671 C442.97962096 449.26096352 425.01517119 521.66796322 374 563 C277.83596416 639.03791609 91.62430381 608 0 608 C0 407.36 0 206.72 0 0 Z M99 87 C99 229.89 99 372.78 99 520 C174.99646815 524.52961614 174.99646815 524.52961614 259.75 514.3125 C260.61431641 514.05831299 261.47863281 513.80412598 262.36914062 513.54223633 C289.91270163 505.05302624 311.62861092 486.39678168 325.109375 461.1171875 C342.31234061 427.3172558 347.74729098 388.40463574 350 351 C350.04236786 350.33497467 350.08473572 349.66994934 350.12838745 348.98477173 C351.12169947 333.00216231 351.18761737 317.01776729 351.18530273 301.01098633 C351.18522188 298.06137914 351.19211829 295.11192862 351.20581055 292.16235352 C351.32182008 266.72676721 350.6359394 241.36750462 347.1875 216.125 C347.01718262 214.85164795 346.84686523 213.5782959 346.67138672 212.26635742 C343.24636261 187.623756 337.84993413 163.49255752 327 141 C326.27683594 139.49179687 326.27683594 139.49179687 325.5390625 137.953125 C314.24414717 115.86251711 294.02544706 102.3252328 270.96875 94.625 C217.19924423 77.50482951 147.8954282 87 99 87 Z " fill="#0E6333" transform="translate(3358,659)"/>
<path d="M0 0 C0.76360397 0.00291284 1.52720795 0.00582568 2.31395143 0.00882679 C3.11926567 0.00797237 3.92457991 0.00711794 4.75429761 0.00623763 C7.47366211 0.00458036 10.19296596 0.0101082 12.91232485 0.01555592 C14.85333435 0.01583776 16.79434397 0.01568011 18.73535341 0.01511341 C24.02232492 0.01482533 29.30927396 0.02072375 34.59624022 0.02768737 C40.11492561 0.03391917 45.63361146 0.03452457 51.15229982 0.03571278 C61.61060666 0.03882661 72.0689031 0.0470407 82.52720535 0.05706227 C94.43026549 0.0682218 106.33332611 0.07373345 118.23639017 0.0787577 C142.72920425 0.08922327 167.22200908 0.10682371 191.71481508 0.12908131 C202.59910465 42.9074101 213.38725664 85.70714369 223.98798555 128.55675465 C225.51642248 134.73399025 227.04719323 140.91064779 228.57773799 147.0873614 C231.40278259 158.4882901 234.22671066 169.88949486 237.04968041 181.29093748 C241.16125274 197.89667542 245.27689977 214.50140008 249.39450258 231.10564381 C249.70394808 232.3535054 250.01339357 233.601367 250.3322162 234.88704258 C251.57476219 239.89768112 252.81732207 244.90831621 254.05991548 249.91894299 C257.15901435 262.41584083 260.25726499 274.91294891 263.35540956 287.41008335 C264.90259934 293.65105661 266.44981992 299.89202222 267.99704164 306.13298756 C268.45650808 307.98632112 268.45650808 307.98632112 268.92525667 309.87709576 C272.97869208 326.22721987 277.03243646 342.57726737 281.08624452 358.92729908 C281.71259787 361.4535441 282.33895082 363.97978922 282.96530336 366.50603443 C283.2753273 367.75644268 283.58535124 369.00685093 283.90476984 370.29515034 C285.76854424 377.81230594 287.63220953 385.32948859 289.49578089 392.84669453 C291.04271639 399.08666528 292.58969243 405.32662597 294.13669008 411.56658131 C294.44362417 412.80463017 294.75055826 414.04267903 295.06679338 415.31824452 C299.49894785 433.19541629 303.93328287 451.07204595 308.36888927 468.94836146 C309.56917261 473.78578939 310.76930359 478.62325509 311.96933168 483.46074635 C312.13757306 484.138952 312.30581445 484.81715764 312.47915405 485.51591498 C313.32163999 488.91212496 314.16410521 492.30834008 315.0065555 495.70455891 C316.62288537 502.22044654 318.23952987 508.73625575 319.85690492 515.25188404 C323.55729695 530.1595263 327.2513196 545.06872229 330.93615907 559.98021656 C331.71509072 563.13019599 332.49543053 566.27982374 333.27609438 569.42937428 C334.4910011 574.33233426 335.70117319 579.23643829 336.90749544 584.14151722 C337.34659289 585.92394587 337.78725289 587.70599043 338.22959322 589.48761708 C338.82764116 591.89766017 339.4199433 594.3090425 340.01071352 596.72087818 C340.18573145 597.42059239 340.36074938 598.12030659 340.54107088 598.84122425 C341.32875892 602.08324046 341.71481508 604.76016263 341.71481508 608.12908131 C308.71481508 608.12908131 275.71481508 608.12908131 241.71481508 608.12908131 C235.96629461 587.43440763 235.96629461 587.43440763 233.6686725 578.23503834 C233.27255769 576.66065495 233.27255769 576.66065495 232.86844057 575.05446583 C232.01663314 571.66587762 231.16821654 568.2764535 230.32028383 564.88689381 C229.72214988 562.50079925 229.12394816 560.11472168 228.52568239 557.72866017 C227.28278739 552.7689602 226.04179232 547.80878932 224.80197328 542.84831959 C223.21180254 536.48743158 221.61511085 530.12819954 220.01684278 523.76934201 C218.78433438 518.8614879 217.55607754 513.95257725 216.32903665 509.04335362 C215.74165306 506.69617972 215.15274284 504.34938732 214.56227869 502.00298649 C213.74172428 498.74028646 212.92710216 495.47616104 212.113985 492.21160084 C211.86937029 491.24438099 211.62475557 490.27716114 211.37272829 489.2806316 C211.15277193 488.39241719 210.93281557 487.50420277 210.70619386 486.58907276 C210.41727408 485.43502792 210.41727408 485.43502792 210.12251753 484.25766903 C209.71481508 482.12908131 209.71481508 482.12908131 209.71481508 478.12908131 C132.82481508 478.12908131 55.93481508 478.12908131 -23.28518492 478.12908131 C-24.60518492 484.06908131 -25.92518492 490.00908131 -27.28518492 496.12908131 C-28.27522547 500.24346159 -29.27629612 504.35060448 -30.30959898 508.45378834 C-30.58328306 509.54881672 -30.85696715 510.6438451 -31.13894469 511.77205616 C-32.02399759 515.31089938 -32.91235868 518.8489024 -33.80080992 522.38689381 C-34.42306706 524.87218334 -35.04511333 527.35752567 -35.66695982 529.84291798 C-37.12421554 535.66514332 -38.58356083 541.48684081 -40.04397374 547.30827469 C-41.87396412 554.60346373 -43.70066059 561.89947702 -45.52737242 569.19548756 C-48.77686811 582.17413278 -52.03124371 595.15154814 -55.28518492 608.12908131 C-88.28518492 608.12908131 -121.28518492 608.12908131 -155.28518492 608.12908131 C-153.03528292 595.75462029 -153.03528292 595.75462029 -151.50784117 589.6032024 C-151.34098311 588.92716213 -151.17412504 588.25112187 -151.00221068 587.55459553 C-150.45389821 585.33643094 -149.90080981 583.11948778 -149.34768492 580.90251881 C-148.95154506 579.30389072 -148.55572013 577.70518455 -148.16018492 576.10640675 C-147.31464482 572.69135776 -146.46701963 569.27683596 -145.61770445 565.86272389 C-144.26258768 560.41523931 -142.9121746 554.9665954 -141.56252867 549.51775318 C-140.16833871 543.88998358 -138.77384957 538.26228907 -137.37771422 532.63500172 C-134.46323115 520.88775505 -131.55625726 509.138693 -128.66018492 497.38689381 C-128.47777251 496.64669876 -128.29536009 495.90650372 -128.10742003 495.14387852 C-127.19595091 491.44500129 -126.28469938 487.7460705 -125.37356383 484.04711109 C-123.53274033 476.57415446 -121.69019258 469.10162285 -119.84768492 461.62908131 C-119.66315764 460.88067101 -119.47863035 460.13226071 -119.28851134 459.36117131 C-114.41405225 439.59162891 -109.53170827 419.82403351 -104.64980894 400.0563274 C-98.52321056 375.24849063 -92.40125198 350.43951653 -86.28518492 325.62908131 C-79.74611697 299.10270086 -73.19977171 272.57812421 -66.64936262 246.05454212 C-62.01607304 227.293616 -57.38336253 208.53254946 -52.75784117 189.76970631 C-52.57484968 189.02742787 -52.3918582 188.28514942 -52.20332152 187.5203777 C-50.55343573 180.827727 -48.90372515 174.13503312 -47.25411803 167.44231373 C-42.81317162 149.42502674 -38.36711015 131.4090136 -33.91409117 113.39470631 C-33.45474294 111.53630855 -32.99539744 109.67791011 -32.53605467 107.819511 C-28.86858269 92.98213334 -28.86858269 92.98213334 -27.05804259 85.66204029 C-22.79141211 68.41161374 -18.5264498 51.16095911 -14.32424742 33.89470631 C-13.88902266 32.10812611 -13.88902266 32.10812611 -13.44500548 30.28545338 C-12.14870721 24.96236524 -10.85610451 19.63843556 -9.57082945 14.31267506 C-9.13718281 12.52749212 -8.70343427 10.74233392 -8.26955992 8.95720631 C-8.07899016 8.16074696 -7.88842039 7.36428761 -7.69207579 6.54369313 C-6.099759 0.01764685 -6.099759 0.01764685 0 0 Z M71.71481508 83.12908131 C68.65896067 94.40211453 65.79589588 105.71592383 62.99606508 117.05486256 C62.54162402 118.89127954 62.08709272 120.72767419 61.63247865 122.56404835 C60.41254498 127.49385946 59.19456562 132.42415133 57.97715944 137.35458714 C57.20694459 140.47345162 56.436225 143.59219099 55.6653766 146.71089894 C48.12050894 177.23894447 40.62819577 207.77947991 33.1967954 238.33533627 C32.18107368 242.51147539 31.16489956 246.6875043 30.14840883 250.86345631 C29.83936145 252.13310042 29.83936145 252.13310042 29.52407068 253.4283939 C25.85417838 268.49963673 22.15249984 283.56299102 18.44363207 298.62468487 C17.50367732 302.44215504 16.56414879 306.25972985 15.62475771 310.07733876 C15.00016079 312.61550255 14.37555753 315.15366478 13.75094789 317.69182545 C13.44225456 318.94624974 13.13356123 320.20067404 12.81551355 321.49311119 C10.97230609 328.98178885 9.1260122 336.46969775 7.27760595 343.95709378 C6.12632298 348.62358279 4.9778174 353.29075224 3.83001703 357.95809895 C3.29197705 360.14330303 2.75272975 362.32821024 2.21220773 364.51280171 C1.46817475 367.52044802 0.72833607 370.52909693 -0.01052672 373.53801686 C-0.33678101 374.85020144 -0.33678101 374.85020144 -0.6696263 376.18889481 C-0.86923083 377.00537019 -1.06883536 377.82184557 -1.27448851 378.66306263 C-1.44669763 379.36128478 -1.61890675 380.05950693 -1.79633433 380.77888733 C-2.43903893 383.86874854 -2.83885967 387.00480455 -3.28518492 390.12908131 C60.40481508 390.12908131 124.09481508 390.12908131 189.71481508 390.12908131 C179.83388503 348.86166757 169.94663011 307.6004038 159.88146776 266.378326 C157.17949691 255.3090437 154.48263016 244.23851565 151.78512758 233.16814381 C151.33777915 231.33250433 151.33777915 231.33250433 150.88139337 229.45978123 C144.69305771 204.06480005 138.53997575 178.66135259 132.40231508 153.25408131 C132.1763175 152.31861973 131.95031992 151.38315815 131.71747392 150.41934925 C130.42326115 145.06214458 129.1294461 139.70484402 127.83589166 134.34748036 C127.23867461 131.87466351 126.64104154 129.40194753 126.04332155 126.92925221 C124.39098137 120.09127002 122.74160137 113.2526751 121.11234373 106.40915066 C120.45370239 103.6431065 119.79271714 100.87762482 119.13160318 98.11217076 C118.68436541 96.23627877 118.2409999 94.35946492 117.7977466 92.48262745 C117.53552812 91.38610859 117.27330965 90.28958973 117.00314516 89.15984303 C116.77677873 88.20552387 116.55041231 87.25120472 116.3171863 86.26796681 C115.91279592 84.16408048 115.91279592 84.16408048 114.71481508 83.12908131 C113.36386526 83.03639132 112.00814417 83.01160805 110.65402406 83.01555592 C109.79320726 83.01563145 108.93239046 83.01570698 108.0454883 83.0157848 C106.64237146 83.02352673 106.64237146 83.02352673 105.21090883 83.03142506 C103.78138635 83.03354748 103.78138635 83.03354748 102.32298464 83.03571278 C99.26606343 83.04132979 96.20921431 83.05388515 93.15231508 83.06658131 C91.08525884 83.07159412 89.01820146 83.0761574 86.95114321 83.08025318 C81.8723392 83.09130475 76.79358938 83.10858076 71.71481508 83.12908131 Z " fill="#0E6333" transform="translate(2912.285184919834,658.8709186911583)"/>
<path d="M0 0 C65.34 0 130.68 0 198 0 C203.07375 20.274375 208.1475 40.54875 213.375 61.4375 C214.93395996 67.66423584 216.49291992 73.89097168 218.09912109 80.30639648 C219.40765707 85.53618827 220.71602193 90.76602188 222.0234375 95.99609375 C222.19915543 96.69901228 222.37487336 97.4019308 222.55591607 98.12614989 C228.52290553 121.99884386 234.43568946 145.88457694 240.31778026 169.77831817 C246.65782362 195.53205103 253.0325479 221.27698542 259.43359375 247.015625 C259.65537135 247.90743446 259.87714895 248.79924391 260.10564709 249.7180779 C262.60931305 259.78560709 265.11378036 269.85293683 267.61865234 279.92016602 C272.22358084 298.42767476 276.82561641 316.93590305 281.42750406 335.44416809 C282.15049574 338.35194255 282.87350905 341.25971162 283.59652328 344.16748047 C292.6202342 380.45906232 301.62697897 416.75481497 310.60644531 453.05737305 C311.62951303 457.19320756 312.65263784 461.32902796 313.67578125 465.46484375 C313.92576244 466.47544546 314.17574364 467.48604717 314.43330002 468.52727318 C318.38882175 484.51631403 322.3619772 500.50093562 326.34143364 516.48403203 C327.51018261 521.17852466 328.67807249 525.87323034 329.84536743 530.56808472 C330.09018201 531.55271971 330.09018201 531.55271971 330.33994234 532.55724633 C331.15818357 535.84831533 331.97631207 539.13941234 332.79436302 542.43052864 C334.69660378 550.08263068 336.60304501 557.73367383 338.51240063 565.38400364 C339.67948085 570.06432143 340.84270898 574.74559013 342.00484657 579.42713737 C342.54683106 581.60700163 343.09045403 583.78645922 343.63579369 585.96548653 C344.380869 588.94347354 345.12022311 591.92282391 345.8581543 594.90258789 C346.07762978 595.77389091 346.29710526 596.64519394 346.52323151 597.54290009 C346.81798748 598.74062168 346.81798748 598.74062168 347.11869812 599.96253967 C347.29011165 600.65058213 347.46152517 601.33862459 347.63813305 602.04751682 C348 604 348 604 348 608 C315 608 282 608 248 608 C236.12071221 565.23456394 225.85606992 522.0365629 215 479 C100.16 478.505 100.16 478.505 -17 478 C-18.32 483.94 -19.64 489.88 -21 496 C-21.98406626 500.07884414 -22.97939229 504.14994061 -24.00854492 508.21704102 C-24.28062271 509.30070953 -24.5527005 510.38437805 -24.83302307 511.50088501 C-25.71294986 515.00254087 -26.59651223 518.50326567 -27.48046875 522.00390625 C-28.10024215 524.46440177 -28.71989434 526.92492783 -29.33943176 529.38548279 C-30.62782377 534.49985099 -31.91807904 539.61374565 -33.2097168 544.72729492 C-34.70287573 550.63885384 -36.19153371 556.55153375 -37.67808837 562.46475655 C-39.11553198 568.18189685 -40.55686436 573.89805168 -41.99978065 579.6138134 C-42.61130602 582.03816317 -43.22172981 584.46279106 -43.83104515 586.88769722 C-44.67723137 590.25354198 -45.52783404 593.61823944 -46.37963867 596.98266602 C-46.6315799 597.98872391 -46.88352112 598.9947818 -47.14309692 600.03132629 C-47.48988243 601.39532562 -47.48988243 601.39532562 -47.84367371 602.78688049 C-48.04403827 603.58113214 -48.24440283 604.37538378 -48.45083904 605.19370365 C-49 607 -49 607 -50 608 C-53.07454761 608.09532328 -56.12659158 608.1255138 -59.20141602 608.11352539 C-60.65004028 608.11374443 -60.65004028 608.11374443 -62.12792969 608.1139679 C-65.33661099 608.11326834 -68.54523503 608.10547397 -71.75390625 608.09765625 C-73.97208118 608.09579222 -76.19025652 608.09436825 -78.40843201 608.09336853 C-84.25940071 608.08954216 -90.11034477 608.07971086 -95.96130371 608.06866455 C-101.92667304 608.05845299 -107.89204633 608.05387146 -113.85742188 608.04882812 C-125.57162544 608.03808869 -137.28581067 608.02101085 -149 608 C-148.32495235 601.16905611 -146.81537822 594.69160155 -145.14282227 588.04125977 C-144.70261482 586.26729891 -144.70261482 586.26729891 -144.25351429 584.45750046 C-143.44769883 581.21400292 -142.63777625 577.97158314 -141.82605886 574.72956109 C-140.96342673 571.27980374 -140.10622679 567.82869692 -139.2484436 564.37773132 C-137.78524757 558.49405887 -136.31885062 552.61119232 -134.85018921 546.72888184 C-132.5539584 537.53170523 -130.26430461 528.33289822 -127.97583008 519.13378906 C-127.21516424 516.07637789 -126.45445984 513.01897631 -125.69374084 509.96157837 C-125.41289187 508.83278926 -125.41289187 508.83278926 -125.12636918 507.68119633 C-123.80948722 502.38871551 -122.49173377 497.09645216 -121.17356873 491.80429077 C-115.98810575 470.98478897 -110.82459671 450.16000824 -105.69831467 429.32584763 C-104.84364142 425.85262817 -103.98830974 422.37957085 -103.13305664 418.90649414 C-102.12486813 414.81216741 -101.11675509 410.71782216 -100.10896301 406.62339783 C-96.1763006 390.64729318 -92.22996061 374.67456543 -88.28469849 358.7015686 C-87.00588809 353.52400434 -85.72738268 348.34636479 -84.44897461 343.16870117 C-84.23972634 342.32122787 -84.03047808 341.47375456 -83.81488895 340.60060024 C-82.97392481 337.19459383 -82.13297338 333.78858429 -81.29202461 330.38257408 C-79.11237716 321.55459831 -76.9325743 312.72666108 -74.75195312 303.89892578 C-72.58354438 295.12038638 -70.41627918 286.34156515 -68.25 277.5625 C-68.06901386 276.82909897 -67.88802773 276.09569794 -67.70155716 275.34007263 C-63.01305738 256.33991956 -58.34425673 237.33504527 -53.69921875 218.32421875 C-52.02414337 211.46976403 -50.34892744 204.61534366 -48.6734848 197.7609787 C-48.18426234 195.75952646 -47.69507046 193.75806675 -47.20590973 191.75659943 C-40.25496101 163.31846804 -33.25007464 134.89397243 -26.19921875 106.48046875 C-26.01109485 105.72234626 -25.82297096 104.96422378 -25.62914634 104.18312788 C-21.68294754 88.28098552 -17.73282015 72.37982099 -13.77863407 56.4796629 C-12.54273134 51.50985205 -11.30749697 46.53987516 -10.07242078 41.56985885 C-9.24642307 38.24629074 -8.41996004 34.92283977 -7.59239769 31.59966087 C-6.68579004 27.95852704 -5.78050903 24.31706565 -4.87548828 20.67553711 C-4.61175384 19.61798092 -4.34801939 18.56042473 -4.07629299 17.47082138 C-3.70777769 15.98641996 -3.70777769 15.98641996 -3.33181763 14.47203064 C-3.12147951 13.62682326 -2.9111414 12.78161589 -2.6944294 11.91079617 C-1.74981835 7.95132924 -0.88303403 3.97365314 0 0 Z M78 83 C73.95167087 97.14886074 70.36763257 111.3935185 66.87109375 125.6875 C66.28314807 128.08241194 65.69497191 130.47726731 65.10658264 132.87207031 C63.69983936 138.60043844 62.29564017 144.32942635 60.89272553 150.05873299 C59.75334365 154.71147049 58.61268325 159.36389299 57.47119141 164.01611328 C57.30790655 164.68159463 57.14462169 165.34707598 56.97638881 166.03272343 C56.64580277 167.38003955 56.31521534 168.72735534 55.98462653 170.07467079 C47.68248038 203.91224629 39.40058979 237.75482696 31.16088867 271.60766602 C30.9684171 272.39840672 30.77594553 273.18914743 30.57764149 274.00384998 C30.38518188 274.79454223 30.19272226 275.58523447 29.99443054 276.39988708 C29.80183844 277.19110899 29.60924633 277.98233089 29.4108181 278.79752922 C29.02364353 280.38815782 28.6364885 281.97879118 28.24935341 283.5694294 C25.13419999 296.366877 22.00180889 309.16005421 18.86367798 321.95188522 C17.37965371 328.00257737 15.89740645 334.05370515 14.4151001 340.10481834 C12.98954562 345.92322763 11.56102998 351.74089965 10.13035202 357.55805111 C9.25356393 361.12616517 8.37962116 364.69497155 7.50647736 368.26397896 C7.09911876 369.92645657 6.69054339 371.58863656 6.28069305 373.25050163 C5.72074134 375.52162532 5.16502146 377.79374366 4.61035156 380.06616211 C4.14124359 381.97684731 4.14124359 381.97684731 3.66265869 383.9261322 C2.89463157 386.96469074 2.89463157 386.96469074 3 390 C66.36 390 129.72 390 195 390 C194.32950276 384.63602204 193.59922311 379.86426 192.33959961 374.67651367 C192.17261881 373.98349372 192.00563801 373.29047377 191.83359718 372.57645321 C191.27736541 370.27258928 190.71486189 367.97030514 190.15234375 365.66796875 C189.74912372 364.00350051 189.34629753 362.33893682 188.9438324 360.67428589 C187.84498005 356.13407666 186.74067566 351.5952088 185.63549042 347.05653763 C184.45045772 342.18554897 183.27067555 337.31328876 182.09033203 332.44116211 C180.08395538 324.16225696 178.07460415 315.88407895 176.06298828 307.60644531 C172.62540214 293.46099373 169.19448158 279.31392905 165.7645874 265.16661072 C165.52437111 264.17579278 165.28415482 263.18497484 165.03665924 262.16413212 C164.54986793 260.15625795 164.06308714 258.14838123 163.57631683 256.14050198 C162.10618245 250.07677202 160.63504611 244.01328614 159.16317749 237.94997692 C153.57237082 214.9176144 148.00342623 191.88010807 142.4661026 168.83482933 C141.51896558 164.89315064 140.57127286 160.95160568 139.62347412 157.01008606 C138.99913423 154.41354641 138.37481122 151.81700271 137.75048828 149.22045898 C137.44369392 147.94454171 137.13689957 146.66862444 136.82080841 145.35404301 C134.99318748 137.75156689 133.16894116 130.14829018 131.34704494 122.54444027 C130.21938734 117.84112789 129.08885145 113.1385108 127.95755959 108.4360714 C127.42896119 106.23598442 126.90164188 104.0355897 126.37564659 101.83487892 C125.65740446 98.83037176 124.93484389 95.82693596 124.21118164 92.82373047 C123.99995352 91.93533509 123.7887254 91.04693972 123.57109642 90.13162327 C122.91994825 86.25191649 122.91994825 86.25191649 121 83 C119.64905018 82.90731001 118.29332909 82.88252674 116.93920898 82.88647461 C116.07839218 82.88655014 115.21757538 82.88662567 114.33067322 82.88670349 C112.92755638 82.89444542 112.92755638 82.89444542 111.49609375 82.90234375 C110.06657127 82.90446617 110.06657127 82.90446617 108.60816956 82.90663147 C105.55124835 82.91224848 102.49439923 82.92480384 99.4375 82.9375 C97.37044376 82.94251281 95.30338638 82.94707609 93.23632812 82.95117188 C88.15752412 82.96222344 83.0787743 82.97949945 78 83 Z " fill="#0E6333" transform="translate(4745,659)"/>
<path d="M0 0 C293.0028626 0 293.0028626 0 338 22 C338.66370605 22.32226562 339.32741211 22.64453125 340.01123047 22.9765625 C354.75948764 30.23089145 367.20085422 39.62225228 379 51 C379.77859375 51.71542969 380.5571875 52.43085937 381.359375 53.16796875 C411.82656975 81.96054819 425.07570662 127.52006069 429 168 C429.12810059 169.24934326 429.12810059 169.24934326 429.25878906 170.52392578 C430.25694314 181.49825419 430.24358225 192.48822989 430.25 203.5 C430.25067474 204.54190491 430.25134949 205.58380981 430.25204468 206.6572876 C430.21096178 246.70427756 424.90948383 286.72292296 407 323 C406.67386719 323.66467285 406.34773438 324.3293457 406.01171875 325.01416016 C386.45217541 364.39624866 352.63442049 392.8708283 311.16943359 406.96191406 C300.51706099 410.4130067 289.75993928 413.26294068 278.75 415.3125 C277.96133545 415.45977539 277.1726709 415.60705078 276.36010742 415.75878906 C273.57953847 416.23432844 270.79547763 416.62044745 268 417 C266.76620605 417.16867081 265.53241211 417.33734161 264.26123047 417.51112366 C248.1464604 419.49822043 231.98615443 419.2613099 215.78152466 419.20256042 C212.06707447 419.19099795 208.35265201 419.19062497 204.63818359 419.18920898 C193.8421062 419.17879838 183.0460514 419.15087608 172.25 419.125 C135.99125 419.063125 135.99125 419.063125 99 419 C99 481.37 99 543.74 99 608 C66.33 608 33.66 608 0 608 C0 407.36 0 206.72 0 0 Z M99 86 C99 167.51 99 249.02 99 333 C121.39875 333.061875 143.7975 333.12375 166.875 333.1875 C173.91569824 333.21481201 180.95639648 333.24212402 188.21044922 333.27026367 C194.58888026 333.28030448 194.58888026 333.28030448 200.96731567 333.28633118 C203.78159866 333.2890967 206.59570734 333.30021927 209.40994263 333.31672668 C240.03226414 333.48824945 269.01589474 331.44507131 293 310 C293.83273437 309.26136719 294.66546875 308.52273438 295.5234375 307.76171875 C319.52414853 285.20105038 327.01029958 249.54894565 328.16845703 217.85546875 C329.18979591 183.51855746 327.88039362 144.72980267 305 117 C304.36191406 116.19949219 303.72382812 115.39898438 303.06640625 114.57421875 C292.55576424 101.99105578 277.09213934 94.28787404 261.4375 90.125 C260.71957275 89.93405762 260.00164551 89.74311523 259.26196289 89.54638672 C247.16938203 86.59057139 235.03649695 85.7008783 222.62915039 85.77294922 C221.24562561 85.77356411 219.86210021 85.77329113 218.47857571 85.7722187 C214.82463815 85.77177327 211.1708357 85.78323446 207.51692963 85.79743958 C204.06885932 85.80896019 200.62081933 85.80937283 197.17272949 85.81079102 C187.13596893 85.82122175 177.09923268 85.84914422 167.0625 85.875 C133.3715625 85.936875 133.3715625 85.936875 99 86 Z " fill="#0E6333" transform="translate(1708,659)"/>
<path d="M0 0 C22.44 0 44.88 0 68 0 C68.00586624 5.39197723 68.01173248 10.78395447 68.01777649 16.33932495 C68.07303605 65.86677345 68.14304319 115.39418392 68.22898628 164.92158901 C68.24025348 171.42233519 68.25139209 177.92308159 68.26245117 184.42382812 C68.26465486 185.71792548 68.26685854 187.01202283 68.269129 188.34533526 C68.30443223 209.25667722 68.32933566 230.16801914 68.35034702 251.07937978 C68.37216477 272.56106478 68.40527154 294.04271136 68.44870156 315.52436364 C68.47511566 328.76314624 68.49288631 342.00188102 68.49934604 355.24068864 C68.50463142 364.33809762 68.52095304 373.43544662 68.54566566 382.53282337 C68.55957353 387.76936257 68.5688921 393.00579465 68.56500816 398.24235344 C68.29990607 461.80799227 68.29990607 461.80799227 98.27734375 516.0390625 C100 518 100 518 100 520 C100.59167969 520.26683594 101.18335938 520.53367187 101.79296875 520.80859375 C104.03804375 522.02053689 105.49055853 523.29081898 107.3125 525.0625 C130.83976712 545.97562633 166.61990487 553.0501209 197.1953125 553.203125 C198.13769272 553.21013931 199.08007294 553.21715363 200.05101013 553.22438049 C203.07572257 553.24178831 206.10023931 553.24823262 209.125 553.25 C210.15744843 553.25067474 211.18989685 553.25134949 212.25363159 553.25204468 C227.37160672 553.23632632 242.11910288 552.92833459 257 550 C257.88220215 549.83371094 258.7644043 549.66742187 259.67333984 549.49609375 C284.53470127 544.66430135 307.065366 535.11579192 325 517 C325.80050781 516.22140625 326.60101562 515.4428125 327.42578125 514.640625 C353.76179757 487.53135777 356.13860405 446.36724008 356.15821838 410.78942871 C356.1627962 409.00607937 356.16779795 407.22273107 356.17318195 405.43938398 C356.18663381 400.58426072 356.19414336 395.72914437 356.20060861 390.87400746 C356.20867018 385.62133437 356.2223478 380.36867541 356.23532104 375.11601257 C356.25700276 366.03043566 356.27517728 356.94485725 356.29092598 347.85926819 C356.3137007 334.7232549 356.34183269 321.58725731 356.37124526 308.45125741 C356.41882836 287.13564341 356.46211749 265.82002295 356.50268555 244.50439453 C356.54208784 223.80614725 356.5835253 203.10790567 356.62768555 182.40966797 C356.63177196 180.49384168 356.63177196 180.49384168 356.63594092 178.53931183 C356.64962118 172.13147534 356.66334129 165.72363894 356.67708123 159.31580257 C356.79090008 106.21054686 356.89747532 53.10527862 357 0 C379.11 0 401.22 0 424 0 C424.06793878 55.68715446 424.12159331 111.37429889 424.15319599 167.06148664 C424.15694773 173.64849442 424.16083073 180.23550211 424.16479492 186.82250977 C424.16558185 188.13376388 424.16636878 189.44501799 424.16717956 190.79600707 C424.18020342 211.97693573 424.20384048 233.15783976 424.23145839 254.33875384 C424.25959689 276.10180116 424.27619404 297.86483566 424.28226548 319.62790042 C424.28636447 333.03713462 424.29927069 346.44629915 424.3237494 359.85551188 C424.33971106 369.07346151 424.34437699 378.29137557 424.34050413 387.50933798 C424.33859867 392.81310117 424.34134235 398.11674335 424.35761642 403.42048454 C424.48557497 447.37001666 422.66514592 491.57762667 401 531 C400.44699219 532.04285156 399.89398437 533.08570313 399.32421875 534.16015625 C379.66497916 569.77200075 344.20071145 592.18394069 306.01464844 603.55810547 C274.77746669 612.44410205 242.42714316 615.23365888 210.0625 615.1875 C208.86818863 615.18659363 208.86818863 615.18659363 207.64974976 615.18566895 C149.95671892 615.06799103 89.95290006 605.38068557 47 564 C46.29488281 563.35804688 45.58976562 562.71609375 44.86328125 562.0546875 C21.02906967 539.71917887 9.63702792 506.27974168 3.75 475 C3.59885742 474.20803223 3.44771484 473.41606445 3.29199219 472.60009766 C0.4628383 456.4138888 -0.29969355 440.05411584 -0.24050903 423.65666199 C-0.24138418 421.81125066 -0.24314081 419.96583959 -0.24568737 418.12042981 C-0.2501042 413.11694613 -0.24223652 408.11355005 -0.23213124 403.1100775 C-0.22341611 397.68912831 -0.22642255 392.26818324 -0.22793579 386.847229 C-0.22897959 377.47743262 -0.22275612 368.10766431 -0.21146011 358.73787498 C-0.19513913 345.19108256 -0.18999039 331.64430358 -0.18748413 318.09750239 C-0.18311733 296.1135779 -0.1698359 274.12966834 -0.15087891 252.14575195 C-0.13249374 230.80265303 -0.11835017 209.45956002 -0.10986328 188.11645508 C-0.10933783 186.79873323 -0.10881239 185.48101138 -0.10827102 184.12335857 C-0.10566076 177.51209835 -0.10313339 170.90083811 -0.10064721 164.28957784 C-0.07994636 109.52637437 -0.04419445 54.76318913 0 0 Z " fill="#0E6333" transform="translate(1703,1504)"/>
<path d="M0 0 C146.52 0 293.04 0 444 0 C444 29.37 444 58.74 444 89 C387.57 89 331.14 89 273 89 C273 260.27 273 431.54 273 608 C240 608 207 608 173 608 C173 436.73 173 265.46 173 89 C115.91 89 58.82 89 0 89 C0 59.63 0 30.26 0 0 Z " fill="#0E6333" transform="translate(4142,659)"/>
<path d="M0 0 C0.77472656 0.7425 1.54945313 1.485 2.34765625 2.25 C4.3050107 4.12565 6.32758905 5.80188253 8.4375 7.5 C44.53020035 39.16281158 54.75599192 94.60329352 57.93115234 139.91455078 C59.18099029 160.02149431 58.48885155 179.80638817 57.0625 199.875 C56.99519684 200.8256131 56.92789368 201.7762262 56.85855103 202.75564575 C56.6634789 205.46393178 56.46069433 208.17149178 56.25390625 210.87890625 C56.16317841 212.11290161 56.16317841 212.11290161 56.07061768 213.37182617 C55.6171766 219.0781468 55.6171766 219.0781468 54.5 221.3125 C-40.54 221.3125 -135.58 221.3125 -233.5 221.3125 C-230.54482364 279.48376211 -230.54482364 279.48376211 -204.5 330.3125 C-203.4171875 331.7975 -203.4171875 331.7975 -202.3125 333.3125 C-186.30068759 352.01016482 -158.88942696 358.98928463 -135.5 361.3125 C-127.75699253 361.8098344 -120.0049869 361.74549233 -112.25 361.6875 C-111.15162811 361.68351196 -110.05325623 361.67952393 -108.92160034 361.67541504 C-58.73030401 361.46663966 -8.55014192 357.80828025 41.5 354.3125 C42.28021699 358.52138788 42.6760797 362.58655983 42.81640625 366.86328125 C42.85838135 368.11222168 42.90035645 369.36116211 42.94360352 370.64794922 C43.00245728 372.61658936 43.00245728 372.61658936 43.0625 374.625 C43.10536179 375.97672607 43.14824925 377.32845133 43.19116211 378.68017578 C43.4841352 388.2271691 43.62603876 397.76156316 43.5 407.3125 C2.1262144 413.71483326 -39.77147612 417.66040622 -81.55084229 420.19396973 C-83.32363025 420.30177478 -85.0961581 420.41383603 -86.86865234 420.52636719 C-142.75521204 423.97987701 -202.37932556 422.49221626 -246.6875 383.875 C-287.4618104 346.09210631 -297.55751347 286.31788404 -300.5 233.3125 C-300.64989802 228.104357 -300.68897234 222.89749592 -300.703125 217.6875 C-300.70595238 216.96550415 -300.70877975 216.2435083 -300.71169281 215.49963379 C-300.7265618 211.66544249 -300.73586401 207.8312875 -300.74023438 203.99707031 C-300.74458084 200.90254682 -300.75834042 197.80830815 -300.78125 194.71386719 C-301.25500899 129.3536456 -291.26591746 58.83207926 -244.06005859 9.81738281 C-187.43957439 -47.24984964 -60.90222063 -54.58918557 0 0 Z M-202.7890625 53.71875 C-229.01715647 85.06706949 -234.5 127.84604275 -234.5 167.3125 C-159.92 167.3125 -85.34 167.3125 -8.5 167.3125 C-8.22481979 146.82184004 -8.22481979 146.82184004 -9.6875 126.5625 C-9.8205957 125.46164062 -9.95369141 124.36078125 -10.09082031 123.2265625 C-13.82867704 94.12646988 -21.13601328 66.39331164 -42.5 45.3125 C-43.17933594 44.63445312 -43.85867188 43.95640625 -44.55859375 43.2578125 C-62.23648208 26.71924754 -88.13989733 22.2153059 -111.5 21.3125 C-112.42296875 21.27125 -113.3459375 21.23 -114.296875 21.1875 C-147.33607149 20.44085149 -179.51844404 29.25680295 -202.7890625 53.71875 Z " fill="#0E6333" transform="translate(3718.5,1697.6875)"/>
<path d="M0 0 C22.11 0 44.22 0 67 0 C69.48853516 8.66443359 69.48853516 8.66443359 72.02734375 17.50390625 C83.5577342 57.64905867 95.08904625 97.79394582 106.625 137.9375 C107.00664873 139.26558622 107.00664873 139.26558622 107.39600754 140.62050247 C109.71870968 148.70317254 112.04144414 156.78583332 114.36421204 164.8684845 C118.51253651 179.30361942 122.66066467 193.73881074 126.80865479 208.17404175 C127.33076963 209.9910279 127.8528847 211.80801398 128.375 213.625 C128.63343563 214.52436846 128.89187126 215.42373692 129.15813828 216.35035896 C130.71050304 221.75262968 132.26293519 227.15488102 133.81542587 232.55711555 C135.10353408 237.03937308 136.39161742 241.52163776 137.6796875 246.00390625 C137.93530205 246.89340092 138.1909166 247.78289558 138.45427704 248.69934464 C142.02012878 261.10808343 145.58479054 273.51716358 149.14862061 285.92648315 C151.14735571 292.88609423 153.14641081 299.84561338 155.14553452 306.80511284 C156.50362268 311.53308417 157.86153266 316.26110651 159.21899414 320.98925781 C164.77403354 340.33764304 170.34441236 359.68070273 176 379 C185.24 379.33 194.48 379.66 204 380 C204.66 376.7 205.32 373.4 206 370 C206.54775255 367.88571237 207.12517851 365.77871783 207.7421875 363.68359375 C208.24829811 361.9528083 208.24829811 361.9528083 208.76463318 360.1870575 C209.13105423 358.94970352 209.49747528 357.71234955 209.875 356.4375 C210.27162096 355.08608505 210.66781215 353.7345439 211.06361389 352.38288879 C211.91944175 349.46280193 212.77773872 346.54345697 213.63796997 343.62466431 C215.7665981 336.40086678 217.88114788 329.1729409 219.99696541 321.94538307 C220.49956196 320.2287535 221.00231429 318.51216953 221.5052166 316.7956295 C227.46831573 296.44184198 233.35403633 276.06585286 239.23298645 255.6876297 C241.44998526 248.00341631 243.66831782 240.31958772 245.88643265 232.63569641 C246.43251558 230.74394927 246.97857432 228.85219514 247.52460861 226.96043396 C252.75352868 208.84488428 257.99789046 190.73383844 263.25 172.625 C263.6520913 171.23856662 264.05418074 169.8521327 264.45626831 168.46569824 C264.65490825 167.78077238 264.85354818 167.09584652 265.05820751 166.39016533 C266.062263 162.92808491 267.06629383 159.46599734 268.0703125 156.00390625 C268.26896723 155.31892437 268.46762196 154.63394249 268.67229652 153.92820358 C273.12579092 138.57162053 277.57057048 123.2125179 282.01500416 107.85331059 C283.63758182 102.24619166 285.26084698 96.63927211 286.88452148 91.0324707 C287.34052057 89.4577892 287.79651931 87.8831076 288.2525177 86.3084259 C288.93194918 83.96217138 289.61138627 81.61591848 290.2908535 79.2696743 C292.98915906 69.95188532 295.68439317 60.63321869 298.37475967 51.31313419 C300.08377149 45.39295353 301.79487074 39.47337903 303.5075798 33.55426693 C304.69671525 29.44410116 305.8831118 25.33315842 307.06742764 21.22160149 C307.95509757 18.1430713 308.84699743 15.06576676 309.73828125 11.98828125 C310.05693649 10.87878113 310.37559174 9.76928101 310.7039032 8.62615967 C311.13918083 7.12765472 311.13918083 7.12765472 311.58325195 5.59887695 C311.96003838 4.29392021 311.96003838 4.29392021 312.34443665 2.96260071 C313 1 313 1 314 0 C316.05556661 -0.09413687 318.11440181 -0.11742998 320.17211914 -0.11352539 C321.13794167 -0.11374443 321.13794167 -0.11374443 322.12327576 -0.1139679 C324.26060303 -0.11326885 326.39784413 -0.10547691 328.53515625 -0.09765625 C330.01346285 -0.09579204 331.49177007 -0.09436815 332.97007751 -0.09336853 C336.86798802 -0.08954359 340.76586149 -0.07971352 344.66375732 -0.06866455 C348.63846333 -0.05844992 352.61317529 -0.0538708 356.58789062 -0.04882812 C364.391944 -0.03809122 372.19596682 -0.02101509 380 0 C379.38084513 5.07472698 378.3187264 9.86330738 376.8840332 14.77319336 C376.6680611 15.52631365 376.452089 16.27943394 376.2295723 17.05537605 C375.50775225 19.56816808 374.7792674 22.07897692 374.05078125 24.58984375 C373.52913217 26.40063549 373.00789793 28.21154677 372.48704529 30.02256775 C371.0660628 34.95895613 369.63928591 39.89365324 368.21153259 44.82808685 C366.69325698 50.07922702 365.18042283 55.33193451 363.66699219 60.58447266 C360.76928574 70.63828448 357.86685641 80.69072645 354.96273613 90.74268723 C351.41779986 103.01351075 347.87871803 115.28602088 344.33984375 127.55859375 C343.07386101 131.94866327 341.80782234 136.33871665 340.54174805 140.72875977 C340.2292917 141.81219131 339.91683535 142.89562284 339.59491062 144.01188564 C337.36984219 151.72682998 335.14376277 159.44148219 332.91723633 167.15600586 C325.42971525 193.09967614 317.95568949 219.04716487 310.5 245 C301.32136191 276.94994663 292.11247127 308.89111851 282.89599609 340.83016968 C274.75271966 369.05021215 266.61474223 397.27173861 258.5 425.5 C249.32944812 457.40072829 240.13004437 489.29311113 230.92816162 521.18481445 C220.27132535 558.11916204 209.62959532 595.05779986 199 632 C176.89 632 154.78 632 132 632 C134.24972973 620.75135135 134.24972973 620.75135135 135.49853516 616.56640625 C135.78222961 615.60736389 136.06592407 614.64832153 136.35821533 613.66021729 C136.81898468 612.12684723 136.81898468 612.12684723 137.2890625 610.5625 C137.62041199 609.4459906 137.95176147 608.3294812 138.29315186 607.17913818 C139.20748131 604.09998463 140.12555434 601.021975 141.04491425 597.94432068 C142.6613321 592.52644128 144.26563315 587.10494791 145.87259293 581.68425751 C146.52464043 579.48522036 147.1772059 577.28633734 147.82980347 575.08746338 C153.13701073 557.19734704 158.3710695 539.28580014 163.60753632 521.37487793 C164.84560301 517.14044442 166.08420842 512.90616849 167.32275391 508.671875 C168.75752134 503.76653415 170.1921833 498.8611625 171.62649536 493.95568848 C177.08046596 475.30266105 182.54046219 456.65139879 188 438 C166.88 438 145.76 438 124 438 C118.25681894 419.6218206 118.25681894 419.6218206 116.50244141 413.39086914 C116.19022266 412.29230465 116.19022266 412.29230465 115.87169647 411.17154694 C115.19631646 408.79331262 114.52391573 406.41424785 113.8515625 404.03515625 C113.36191351 402.30869791 112.87207022 400.58229466 112.38204956 398.85594177 C111.33866618 395.17856224 110.29659934 391.50081333 109.25561523 387.82275391 C107.59243739 381.94634254 105.92629904 376.07077297 104.25976562 370.1953125 C101.95628976 362.07338156 99.6540185 353.95111015 97.35253906 345.82861328 C94.27765677 334.97717615 91.19856986 324.12693673 88.1171875 313.27734375 C87.88348701 312.45446869 87.64978653 311.63159363 87.40900421 310.78378296 C86.47195644 307.48443387 85.53487776 304.18509356 84.59774399 300.88576889 C82.95285621 295.09467451 81.30834511 289.30347327 79.6640625 283.51220703 C72.65330666 258.81999447 65.63973427 234.12858261 58.625 209.4375 C58.10192855 207.59633387 57.57885726 205.75516769 57.05578613 203.91400146 C52.30466102 187.19048992 47.55336335 170.4670274 42.80175781 153.74365234 C42.53763564 152.81406141 42.27351347 151.88447048 42.0013876 150.92671013 C40.66897234 146.23721273 39.33653143 141.54772262 38.00404358 136.85824585 C35.38491264 127.64043603 32.76639605 118.42245241 30.14916992 109.20410156 C29.12683874 105.60350189 28.10445229 102.00291791 27.08203125 98.40234375 C26.83102598 97.51836536 26.58002071 96.63438698 26.32140923 95.72362137 C22.98962398 83.99096248 19.64999704 72.26056605 16.30325317 60.53216553 C14.55453518 54.40371436 12.80834128 48.27454494 11.06282997 42.14517975 C9.66536042 37.23881367 8.26451789 32.33342761 6.86109447 27.42876148 C6.0080945 24.4446494 5.15833372 21.45962246 4.30951881 18.47431755 C3.91724207 17.09723533 3.52359375 15.72054297 3.12848473 14.34427071 C2.59237784 12.47623403 2.06154175 10.60668706 1.53100586 8.73706055 C1.23334824 7.69454636 0.93569061 6.65203217 0.62901306 5.57792664 C0 3 0 3 0 0 Z " fill="#0E6333" transform="translate(5175,1672)"/>
<path d="M0 0 C0.680625 0.51691406 1.36125 1.03382812 2.0625 1.56640625 C32.50465296 26.05515429 40.55466727 71.02883264 44.64941597 107.5065918 C45.75619523 117.76136596 46.57696736 128.00785334 47.10107422 138.30859375 C47.14356222 139.1380998 47.18605022 139.96760586 47.22982574 140.82224846 C48.45311988 165.6203138 48.25952191 190.44829637 48.20707727 215.26925385 C48.19244183 222.38717061 48.18974646 229.50507978 48.18748413 236.62300944 C48.1831544 249.30679197 48.16997689 261.99054812 48.15087891 274.67431641 C48.13239548 286.96305209 48.11830083 299.25178049 48.10986328 311.54052734 C48.10933783 312.30365026 48.10881239 313.06677317 48.10827102 313.85302103 C48.10566011 317.68307006 48.10313289 321.51311914 48.10064721 325.34316826 C48.08006253 356.89546892 48.0432752 388.44772028 48 420 C26.22 420 4.44 420 -18 420 C-18.01981934 412.06364502 -18.03963867 404.12729004 -18.06005859 395.95043945 C-18.12510913 370.44634241 -18.19965665 344.9422814 -18.28005161 319.43822839 C-18.29256784 315.46492267 -18.30500102 311.49161669 -18.31738281 307.51831055 C-18.3210818 306.33197983 -18.3210818 306.33197983 -18.32485552 305.12168285 C-18.36438826 292.37959549 -18.39722094 279.63749947 -18.42749982 266.89538715 C-18.45880901 253.78368758 -18.49749847 240.67202416 -18.54279006 227.56036538 C-18.57042646 219.49461128 -18.59256463 211.42888305 -18.60726251 203.36309483 C-18.61794979 197.80343539 -18.63591855 192.24382661 -18.65916704 186.68420569 C-18.67230267 183.49485089 -18.68156466 180.30557666 -18.68421364 177.11619377 C-17.85651382 111.42304419 -17.85651382 111.42304419 -45.5625 53.75 C-65.58922937 34.84768487 -93.20535585 33.18811866 -119.33984375 33.71875 C-158.59667876 34.88378529 -198.05639089 47.52819544 -233 65 C-233.33 182.15 -233.66 299.3 -234 420 C-256.11 420 -278.22 420 -301 420 C-301 275.46 -301 130.92 -301 -18 C-279.22 -18 -257.44 -18 -235 -18 C-234.505 -3.645 -234.505 -3.645 -234 11 C-230.04 9.040625 -226.08 7.08125 -222 5.0625 C-209.26862233 -1.12343264 -196.39155237 -6.39686911 -183 -11 C-182.08976074 -11.31662598 -181.17952148 -11.63325195 -180.24169922 -11.95947266 C-161.14069049 -18.53951074 -141.14798135 -23.97468073 -121 -26 C-119.48792969 -26.16435547 -119.48792969 -26.16435547 -117.9453125 -26.33203125 C-78.28697249 -30.04072888 -32.02903406 -25.76019351 0 0 Z " fill="#0E6333" transform="translate(2586,1690)"/>
<path d="M0 0 C51.72216181 -1.20611337 117.45086604 0.66819233 166.64550781 17.06640625 C166.52590965 22.93402269 166.4015971 28.80151495 166.27319336 34.66894531 C166.23027748 36.65882762 166.18857889 38.64873661 166.14819336 40.63867188 C165.92059307 51.810755 165.6191586 62.92975272 164.64550781 74.06640625 C154.01614231 72.90682285 143.39397269 71.69150993 132.77441406 70.4453125 C91.77451727 65.6031074 91.77451727 65.6031074 50.64550781 62.06640625 C49.99842865 62.0204834 49.35134949 61.97456055 48.68466187 61.92724609 C37.10942257 61.11805861 25.56045359 60.82454851 13.95800781 60.81640625 C12.64580765 60.81539413 12.64580765 60.81539413 11.30709839 60.81436157 C-15.91040516 60.84757977 -46.55808345 63.03590828 -67.36157227 82.81152344 C-79.91433026 95.43498309 -82.6217172 111.90325484 -82.60107422 129.02661133 C-82.44582648 141.29649918 -79.89735811 151.51095393 -71.71386719 160.9609375 C-46.21147192 185.52085295 0.75937559 187.76440037 33.79396057 193.65544128 C104.52998611 206.29938606 104.52998611 206.29938606 134.64550781 223.06640625 C135.639375 223.61941406 136.63324219 224.17242188 137.65722656 224.7421875 C157.79529516 236.77906445 170.45600361 255.03271735 176.52050781 277.44140625 C186.35557472 316.77371026 182.22289398 363.12414845 161.69384766 398.36962891 C159.07706142 402.60499554 155.91994826 406.33341497 152.64550781 410.06640625 C152.04351562 410.81148437 151.44152344 411.5565625 150.82128906 412.32421875 C125.8139597 442.41689601 82.7057091 451.49079605 45.71386719 454.98291016 C-10.23241682 459.73064527 -66.62131136 451.45861642 -121.85449219 443.25390625 C-123.4004155 443.02471497 -123.4004155 443.02471497 -124.97756958 442.79089355 C-127.86441808 442.36043098 -130.75027751 441.92400868 -133.63574219 441.484375 C-134.49465561 441.35546371 -135.35356903 441.22655243 -136.23851013 441.09373474 C-142.1202397 440.1835325 -142.1202397 440.1835325 -144.35449219 439.06640625 C-143.94972263 431.9311541 -143.54029949 424.79617975 -143.12768555 417.66137695 C-142.98794878 415.23565681 -142.84926576 412.80987573 -142.71166992 410.3840332 C-142.51337214 406.89127191 -142.31124899 403.39874948 -142.10839844 399.90625 C-142.04793839 398.82681625 -141.98747833 397.74738251 -141.92518616 396.63523865 C-141.61707358 391.39344527 -141.20490268 386.24909658 -140.35449219 381.06640625 C-139.56635132 381.17027649 -138.77821045 381.27414673 -137.96618652 381.38116455 C-92.47127324 387.4899153 -92.47127324 387.4899153 -46.85449219 392.56640625 C-46.08161865 392.64185669 -45.30874512 392.71730713 -44.51245117 392.79504395 C-39.79565163 393.25057713 -35.0765133 393.66798669 -30.35449219 394.06640625 C-28.6941394 394.21674316 -28.6941394 394.21674316 -27.00024414 394.37011719 C-16.19202877 395.26516132 -5.38045762 395.30878253 5.45800781 395.31640625 C6.4531842 395.31741333 7.4483606 395.31842041 8.47369385 395.31945801 C28.91553324 395.30548349 49.06650161 394.53822572 68.64550781 388.06640625 C69.74636719 387.71964844 70.84722656 387.37289062 71.98144531 387.015625 C87.51852335 381.64592226 99.03203261 372.23615983 106.29003906 357.42895508 C114.54754692 339.70337729 115.99682934 315.73890782 109.96972656 297.12890625 C103.66652033 282.55157975 91.86684862 274.87799785 77.64550781 269.06640625 C49.84954269 258.52503341 19.37652453 254.78795891 -9.79302979 249.91958618 C-26.44846216 247.13509254 -42.98169797 244.24404647 -59.35449219 240.06640625 C-60.26811523 239.83920898 -61.18173828 239.61201172 -62.12304688 239.37792969 C-90.99450993 232.10121567 -119.73218577 219.44921516 -136.47949219 193.50390625 C-153.56043539 163.48426493 -154.46605031 121.76010816 -145.51489258 88.99169922 C-140.25896611 70.99430245 -131.44207788 55.54393863 -118.35449219 42.06640625 C-117.54818359 41.16728516 -117.54818359 41.16728516 -116.72558594 40.25 C-89.852091 11.22123729 -44.24537133 2.01246983 -6.53417969 0.19140625 C-4.35629699 0.1201034 -2.17818237 0.0614336 0 0 Z " fill="#0E6333" transform="translate(4359.3544921875,1662.93359375)"/>
<path d="M0 0 C33 0 66 0 100 0 C100 200.64 100 401.28 100 608 C67 608 34 608 0 608 C0 407.36 0 206.72 0 0 Z " fill="#0E6333" transform="translate(3944,659)"/>
<path d="M0 0 C23.43 0 46.86 0 71 0 C77.93638474 24.27734659 77.93638474 24.27734659 80.85322571 35.18444824 C81.06784266 35.98611923 81.2824596 36.78779022 81.50358009 37.61375427 C81.72540648 38.44246536 81.94723286 39.27117645 82.17578125 40.125 C82.6585154 41.9232582 83.14140509 43.72147466 83.62443542 45.51965332 C84.65245025 49.34788473 85.67943625 53.17638995 86.70556641 57.00512695 C88.35150017 63.14645003 89.99980355 69.28713569 91.6484375 75.42773438 C93.6655002 82.94116646 95.68204058 90.45473831 97.6978817 97.96849823 C101.23626376 111.15708576 104.77881123 124.34454945 108.32421875 137.53125 C108.57990191 138.48224012 108.83558506 139.43323025 109.09901619 140.41303825 C110.38518981 145.19675296 111.67144187 149.98044657 112.95773315 154.76412964 C115.29001432 163.43794808 117.62166585 172.11193579 119.95334053 180.78591728 C120.73376979 183.68915483 121.51421463 186.59238818 122.29466248 189.49562073 C125.46001942 201.27069196 128.62502218 213.04585834 131.78977966 224.8210907 C132.85635744 228.78953666 133.92297771 232.75797121 134.98963928 236.72639465 C135.2529602 237.70605918 135.51628111 238.68572371 135.78758144 239.69507504 C136.31826876 241.66945397 136.84895737 243.64383255 137.37964725 245.61821079 C138.94681005 251.44881337 140.51366777 257.27949784 142.08030415 263.11024189 C147.20039687 282.16576297 152.32633956 301.21966706 157.47112656 320.26853752 C158.22833811 323.07255471 158.98522569 325.87665912 159.74197388 328.68080139 C159.9861738 329.5856877 160.23037373 330.49057402 160.48197365 331.42288113 C160.96705673 333.22042085 161.4521224 335.01796527 161.93717003 336.81551456 C163.33566135 341.99738884 164.73642261 347.17864266 166.13890553 352.35943794 C166.99096801 355.50891279 167.84100811 358.65893078 168.69048119 361.80910492 C169.08325902 363.26391267 169.47692021 364.71848225 169.87151527 366.17279816 C170.40629197 368.14412168 170.93774243 370.11634666 171.46899414 372.08862305 C171.76665176 373.1893364 172.06430939 374.29004974 172.37098694 375.42411804 C173 378 173 378 173 380 C183.56 380 194.12 380 205 380 C205.66 376.7 206.32 373.4 207 370 C207.65388175 367.40684342 208.33651991 364.82074889 209.04931641 362.24316406 C209.24568978 361.52932714 209.44206316 360.81549021 209.64438725 360.08002186 C210.293392 357.72427312 210.94742822 355.36995407 211.6015625 353.015625 C212.07074273 351.31708959 212.53963241 349.61847389 213.008255 347.91978455 C214.27709081 343.32424683 215.55049728 338.72998714 216.82487106 334.13598251 C217.90410217 330.24330729 218.98069273 326.34990369 220.05733395 322.4565115 C228.63251547 291.44888899 237.27209597 260.45921075 245.9309082 229.47485352 C252.82233142 204.81426337 259.68959341 180.14707031 266.53873825 155.47470474 C268.85745365 147.1223475 271.17681432 138.77016939 273.49609375 130.41796875 C273.75466974 129.48676901 274.01324574 128.55556927 274.27965736 127.59615135 C280.53403512 105.07295502 286.79362931 82.55121063 293.05844116 60.03091431 C294.26125522 55.70697197 295.46357095 51.38289157 296.66543579 47.0586853 C298.07349895 41.99265161 299.48253472 36.92688945 300.89231682 31.86133385 C301.40965127 30.00185405 301.92664601 28.1422797 302.44326973 26.28260231 C303.15377822 23.7252463 303.86555679 21.16824695 304.57763672 18.61132812 C304.78010671 17.88143016 304.98257669 17.15153219 305.19118214 16.39951611 C306.72267632 10.90797737 308.36084055 5.46386484 310 0 C332.77 0 355.54 0 379 0 C374.38229511 17.31639335 369.76814942 34.60979338 364.8671875 51.84375 C364.31112798 53.80595485 363.75528789 55.76822189 363.199646 57.73054504 C362.03065209 61.85748496 360.86030784 65.98403821 359.68878174 70.11026001 C357.83097333 76.65380033 355.97646879 83.19827424 354.12255859 89.74291992 C353.49039211 91.9744735 352.85822047 94.20602563 352.2260437 96.43757629 C351.91288082 97.5430311 351.59971794 98.64848591 351.27706528 99.78743935 C350.32891574 103.13392785 349.38046282 106.48033022 348.43191528 109.82670593 C343.03589898 128.86421884 337.65852986 147.90695273 332.2902832 166.95231247 C331.17807583 170.89802757 330.06558096 174.84366162 328.953125 178.78930664 C327.62861325 183.48717263 326.30415268 188.18505305 324.9798584 192.88298035 C321.80556058 204.14370227 318.62971594 215.40398725 315.453125 226.6640625 C306.02368914 260.08915774 296.59859612 293.51546752 287.18511105 326.94505882 C282.68593692 342.9224419 278.18309673 358.89878348 273.67441177 374.87348557 C272.90022671 377.61653887 272.12611248 380.35961215 271.35202026 383.10269165 C270.84210384 384.90960744 270.33218564 386.71652272 269.82226562 388.5234375 C269.57167955 389.411397 269.32109348 390.2993565 269.06291389 391.21422386 C267.57775049 396.47669545 266.09202635 401.73900836 264.60590076 407.00120831 C263.68825373 410.2509309 262.77108599 413.50078863 261.85404015 416.75068092 C261.42673645 418.26457521 260.99922107 419.77840977 260.5714817 421.29218102 C259.98566859 423.36545135 259.40058419 425.438926 258.81567383 427.51245117 C258.4873909 428.6750798 258.15910797 429.83770844 257.82087708 431.03556824 C257.18052841 433.34805813 256.58196704 435.67213182 256 438 C212.11 438 168.22 438 123 438 C118.60362088 422.92670015 114.23055897 407.85212505 109.96484375 392.7421875 C109.40764857 390.77132408 108.85036966 388.80048433 108.29301453 386.82966614 C106.81319045 381.59598456 105.33461411 376.3619513 103.85633087 371.12783432 C102.611759 366.72181552 101.36644335 362.31600707 100.1211319 357.91019726 C90.05752174 322.30567443 80.00941676 286.69677624 69.97077942 251.08520508 C66.82259522 239.91721815 63.67337446 228.74952394 60.5234375 217.58203125 C60.2958223 216.77506554 60.06820709 215.96809982 59.83369446 215.1366806 C58.91299234 211.87252578 57.9922834 208.60837289 57.07156372 205.34422302 C55.4652781 199.6495876 53.8590773 193.95492826 52.25292969 188.26025391 C48.574766 175.21917573 44.89659734 162.17809898 41.21777344 149.13720703 C40.98782433 148.32206697 40.75787521 147.50692692 40.52095795 146.66708565 C39.35913916 142.54860626 38.19728994 138.43013545 37.03540039 134.31167603 C34.74054724 126.17709234 32.446295 118.04233996 30.15332031 109.90722656 C29.25069295 106.70506631 28.348017 103.50291976 27.4453125 100.30078125 C27.22275787 99.5112846 27.00020325 98.72178795 26.77090454 97.90836716 C23.74713486 87.18276497 20.71567521 76.45936472 17.6781311 65.73765564 C16.03747196 59.9462513 14.39935466 54.15412895 12.76191521 48.36181355 C11.44327588 43.69801752 10.12140302 39.03515482 8.79700661 34.37299061 C7.984089 31.50826964 7.17437679 28.64264994 6.36554337 25.77677345 C5.81774437 23.83943146 5.26611019 21.90317514 4.71432495 19.96696472 C4.38417389 18.79482925 4.05402283 17.62269379 3.71386719 16.41503906 C3.42936707 15.41120178 3.14486694 14.4073645 2.85174561 13.37310791 C1.7358461 8.95388999 0.89388346 4.4694173 0 0 Z " fill="#0E6333" transform="translate(2957,1672)"/>
<path d="M0 0 C21.45 0 42.9 0 65 0 C65 44.22 65 88.44 65 134 C110.87 134 156.74 134 204 134 C204 153.14 204 172.28 204 192 C158.13 192 112.26 192 65 192 C65.14941706 229.41407988 65.14941706 229.41407988 65.30664062 266.828125 C65.3726191 282.11782964 65.43779982 297.40753428 65.49731445 312.69726562 C65.54069099 323.83997231 65.58708866 334.98266196 65.63687855 346.12534189 C65.66305808 352.00638144 65.68788556 357.88741857 65.70907402 363.76847839 C65.7901108 385.99878816 65.91718859 408.22282933 66.46508789 430.44726562 C66.48473126 431.26745776 66.50437464 432.0876499 66.52461326 432.93269634 C66.82135518 445.00633174 67.30219942 457.02981578 69 469 C69.10038574 469.71929688 69.20077148 470.43859375 69.30419922 471.1796875 C71.54250806 486.46502618 75.96164608 502.41168645 88.63671875 512.2734375 C100.31695911 520.35410693 114.44767282 521.23546242 128.1875 521.3125 C129.1755513 521.31842163 129.1755513 521.31842163 130.18356323 521.32446289 C147.34567823 521.370972 164.42416329 519.84878443 181.5144043 518.4230957 C182.61773102 518.33123489 183.72105774 518.23937408 184.8578186 518.14472961 C186.93760198 517.96989282 189.01711376 517.79178209 191.09628296 517.60978699 C196.08692205 517.18398675 200.99119368 516.90275005 206 517 C207.66184978 529.14280993 208.73122096 541.27972666 209.625 553.5 C209.76005356 555.30601677 209.89546828 557.11200658 210.03125 558.91796875 C210.35831415 563.2783474 210.68054751 567.63905737 211 572 C199.42350932 574.31071457 187.83601549 576.08866667 176.125 577.5625 C175.27649475 577.67016693 174.4279895 577.77783386 173.55377197 577.88876343 C129.93274431 583.3959629 75.14374202 589.86882009 37.8125 561.1875 C24.54867048 550.08192394 16.72886479 536.07169552 11 520 C10.63132813 518.98808594 10.26265625 517.97617188 9.8828125 516.93359375 C4.52386034 501.0021352 2.38394732 483.70033146 1 467 C0.91641519 466.06466651 0.83283037 465.12933302 0.74671268 464.16565609 C-0.24288471 451.59576972 -0.1330588 439.03147153 -0.11352539 426.42993164 C-0.1132429 423.86617534 -0.11340246 421.30241897 -0.1139679 418.73866272 C-0.1141945 413.24680539 -0.11138605 407.75496338 -0.10573006 402.26310921 C-0.0975581 394.32308514 -0.09499404 386.38306681 -0.09374207 378.44303899 C-0.09156044 365.55683066 -0.0849246 352.6706287 -0.07543945 339.78442383 C-0.06624224 327.27628613 -0.05917273 314.76815017 -0.05493164 302.26000977 C-0.05466892 301.48733177 -0.05440619 300.71465377 -0.05413551 299.91856129 C-0.05283035 296.04176229 -0.05156667 292.16496328 -0.05032361 288.28816426 C-0.03997872 256.19210385 -0.02155544 224.09605532 0 192 C-20.46 192 -40.92 192 -62 192 C-62 172.86 -62 153.72 -62 134 C-41.54 134 -21.08 134 0 134 C0 89.78 0 45.56 0 0 Z " fill="#0E6333" transform="translate(4906,1538)"/>
<path d="M0 0 C0 22.44 0 44.88 0 68 C-5.6925 69.4025 -11.385 70.805 -17.25 72.25 C-52.65612555 81.21686443 -86.51539517 93.68071015 -119.875 108.5 C-121.47492798 109.20950806 -121.47492798 109.20950806 -123.10717773 109.93334961 C-134.92878787 115.27445452 -146.37143037 121.18571518 -158 127 C-158.33 232.93 -158.66 338.86 -159 448 C-181.11 448 -203.22 448 -226 448 C-226 303.46 -226 158.92 -226 10 C-204.22 10 -182.44 10 -160 10 C-160 29.14 -160 48.28 -160 68 C-153.4 64.04 -146.8 60.08 -140 56 C-114.82938989 41.21226656 -89.13091768 28.67945759 -62 18 C-61.12085937 17.64856934 -60.24171875 17.29713867 -59.3359375 16.93505859 C-16.78606138 0 -16.78606138 0 0 0 Z " fill="#0E6333" transform="translate(4130,1662)"/>
<path d="M0 0 C22.11 0 44.22 0 67 0 C67 144.54 67 289.08 67 438 C44.89 438 22.78 438 0 438 C0 293.46 0 148.92 0 0 Z " fill="#0E6333" transform="translate(4665,1672)"/>
<path d="M0 0 C22.11 0 44.22 0 67 0 C67 144.54 67 289.08 67 438 C44.89 438 22.78 438 0 438 C0 293.46 0 148.92 0 0 Z " fill="#0E6333" transform="translate(2780,1672)"/>
<path d="M0 0 C6.18163604 1.62838399 11.31095843 4.94241683 16.75 8.1875 C18.91105633 9.46292098 21.072529 10.73763673 23.234375 12.01171875 C24.35005859 12.67091309 25.46574219 13.33010742 26.61523438 14.00927734 C32.05592025 17.20917294 37.52821474 20.35368231 43 23.5 C52.33907421 28.87836811 61.65640817 34.29259739 70.9609375 39.73046875 C78.29283723 44.01222122 85.64267238 48.26210939 93 52.5 C102.33863207 57.8791408 111.65640317 63.29259447 120.9609375 68.73046875 C128.29283723 73.01222122 135.64267238 77.26210939 143 81.5 C152.32981442 86.87406175 161.63886115 92.2822795 170.93457031 97.71508789 C179.57868221 102.76319784 188.24677144 107.76907715 196.921875 112.76367188 C203.96220595 116.81814818 210.98643744 120.89939127 218 125 C217.06284654 129.27288324 215.07153865 132.78169626 212.9375 136.5625 C212.50195801 137.34061035 212.06641602 138.1187207 211.61767578 138.92041016 C207.31441152 146.55019639 202.83367978 154.07418892 198.34790039 161.59762573 C193.10964094 170.38410017 187.98619836 179.22837646 182.9375 188.125 C175.5039687 201.21515953 167.80976346 214.13086804 160 227 C156.36739655 225.63527177 153.09038593 224.0019884 149.73828125 222.05078125 C148.71524902 221.45773193 147.6922168 220.86468262 146.63818359 220.25366211 C145.54070801 219.61307861 144.44323242 218.97249512 143.3125 218.3125 C142.15205754 217.63840526 140.99140926 216.96466475 139.83056641 216.29125977 C137.41865875 214.89179069 135.00764414 213.49080029 132.59716797 212.08886719 C128.10606194 209.4786543 123.60407467 206.88740337 119.10229492 204.2956543 C108.72706004 198.32198664 98.37488223 192.3100198 88.03857422 186.26928711 C80.70687521 181.98755083 73.35717019 177.73779993 66 173.5 C56.66136793 168.1208592 47.34359683 162.70740553 38.0390625 157.26953125 C30.70716236 152.98777854 23.35729193 148.73795309 16 144.5 C4.64841757 137.96022629 -6.67347275 131.37091535 -17.98388672 124.76025391 C-21.11328321 122.93388603 -24.24572476 121.11283493 -27.37890625 119.29296875 C-37.66279937 113.31599848 -47.93013408 107.33300161 -58 101 C-55.76104441 96.97135294 -53.03781265 93.62217781 -50 90.1875 C-27.77784317 64.41617693 -10.72293653 32.1688096 0 0 Z " fill="#EC1C24" transform="translate(1101,812)"/>
<path d="M0 0 C3.92387566 1.30795855 4.2734936 2.7373968 6.265625 6.30859375 C6.90048828 7.43458984 7.53535156 8.56058594 8.18945312 9.72070312 C8.87634243 10.95961305 9.56319027 12.19854596 10.25 13.4375 C10.96706354 14.71477455 11.68517726 15.99146004 12.40429688 17.26757812 C13.88530905 19.89652294 15.3626456 22.52748318 16.83789062 25.15966797 C20.00729169 30.80267486 23.25464198 36.40044687 26.5 42 C31.71760683 51.02462172 36.89915303 60.06928378 42.0625 69.125 C46.99596734 77.77695859 51.96819413 86.40477505 57 95 C62.72248449 104.77502765 68.3584344 114.59786956 73.96875 124.4375 C78.45555737 132.30537405 82.96764758 140.15825402 87.5 148 C91.34973174 154.66069528 95.19190649 161.32543691 99.00390625 168.0078125 C99.33880066 168.59487473 99.67369507 169.18193695 100.01873779 169.78678894 C101.36746249 172.1516353 102.71591197 174.51663773 104.0635376 176.8821106 C109.51694027 186.45206163 115.04680739 195.974644 120.66040039 205.45166016 C121.20301514 206.37382324 121.74562988 207.29598633 122.3046875 208.24609375 C122.77890137 209.04716553 123.25311523 209.8482373 123.74169922 210.67358398 C125.03233666 213.05978581 126.04263743 215.46380432 127 218 C124.15593449 219.62518029 121.31186414 221.25035209 118.46777344 222.87548828 C115.95529829 224.31117641 113.44294266 225.74707343 110.93066406 227.18310547 C104.53902208 230.83637162 98.14624868 234.48761718 91.75 238.1328125 C80.61814298 244.47883312 69.50259611 250.85043397 58.4375 257.3125 C57.46425781 257.87928467 56.49101563 258.44606934 55.48828125 259.0300293 C50.78222374 261.77403386 46.09192139 264.54015735 41.42578125 267.3515625 C40.55058838 267.87322998 39.67539551 268.39489746 38.77368164 268.93237305 C37.13782665 269.90799905 35.50767762 270.89328242 33.88452148 271.88989258 C33.16466064 272.31681396 32.4447998 272.74373535 31.703125 273.18359375 C31.08083008 273.56056396 30.45853516 273.93753418 29.81738281 274.32592773 C28 275 28 275 25.96508789 274.91796875 C23.13074119 273.5939355 22.36964551 271.84537033 20.85546875 269.12890625 C20.26902588 268.09330566 19.68258301 267.05770508 19.07836914 265.99072266 C18.45438232 264.85940918 17.83039551 263.7280957 17.1875 262.5625 C16.52276769 261.37992847 15.85664729 260.19813623 15.18920898 259.01708984 C13.80337988 256.56238041 12.42360074 254.10441478 11.04785156 251.64404297 C7.94359476 246.10459758 4.7477541 240.61811509 1.5625 235.125 C-3.99036977 225.51054445 -9.50573379 215.87495706 -15.00897217 206.23205566 C-22.29689554 193.4635186 -29.64369169 180.72924124 -37 168 C-45.03537392 154.09571421 -53.04902998 140.1796502 -61.00897217 126.23205566 C-65.83999434 117.76804165 -70.69042167 109.3154689 -75.5625 100.875 C-76.16795654 99.82546143 -76.77341309 98.77592285 -77.3972168 97.69458008 C-80.30469765 92.65739365 -83.21723589 87.62323572 -86.14137268 82.59570312 C-87.53217277 80.20358213 -88.9204926 77.8100264 -90.30856323 75.4163208 C-91.28797416 73.72973452 -92.27101647 72.04525866 -93.25415039 70.36083984 C-93.84703857 69.33812988 -94.43992676 68.31541992 -95.05078125 67.26171875 C-95.57325439 66.36412842 -96.09572754 65.46653809 -96.6340332 64.54174805 C-97.9581544 62.07786498 -99.01706574 59.61635269 -100 57 C-98.77410156 56.56171875 -97.54820312 56.1234375 -96.28515625 55.671875 C-63.49530194 43.70399765 -34.0580894 27.04935166 -6.85546875 5.27734375 C-5.91316406 4.52582031 -4.97085938 3.77429688 -4 3 C-2.91138672 2.07380859 -2.91138672 2.07380859 -1.80078125 1.12890625 C-1.20652344 0.75636719 -0.61226562 0.38382813 0 0 Z " fill="#EC1C24" transform="translate(1016,939)"/>
<path d="M0 0 C3.1975539 2.9433916 5.27698333 5.88779138 7.3984375 9.671875 C8.03531494 10.79867676 8.67219238 11.92547852 9.32836914 13.08642578 C9.66160187 13.68295959 9.99483459 14.27949341 10.33816528 14.894104 C11.75326776 17.42708538 13.1826861 19.95188451 14.61140442 22.47720337 C15.34403576 23.77235575 16.07595513 25.06791111 16.80717468 26.36386108 C20.16887231 32.31758804 23.60492689 38.2264657 27.0625 44.125 C32.63013227 53.63710152 38.15081853 63.17536984 43.64306641 72.73120117 C46.45188699 77.61188929 49.27379948 82.4818383 52.16796875 87.3125 C52.87711426 88.49888062 52.87711426 88.49888062 53.60058594 89.70922852 C54.46389414 91.14812807 55.33266011 92.58377358 56.20800781 94.01538086 C59 98.6701064 59 98.6701064 59 102 C26.3984375 120.80859375 26.3984375 120.80859375 23.19238281 122.65820312 C21.04845933 123.89510728 18.90457974 125.13208754 16.76074219 126.36914062 C11.31807441 129.50958117 5.87464455 132.64868634 0.4296875 135.78515625 C-11.05306897 142.40141117 -22.51960901 149.04390011 -33.96142578 155.73071289 C-42.38569339 160.65051282 -50.83553896 165.52522138 -59.2890625 170.39453125 C-66.5395149 174.57349128 -73.77488269 178.77740506 -81 183 C-90.40111749 188.49432064 -99.82691381 193.94460907 -109.26269531 199.37915039 C-116.7728633 203.70747372 -124.26576184 208.06451429 -131.75 212.4375 C-134.6361163 214.12173191 -137.52251512 215.80547751 -140.40917969 217.48876953 C-142.06134381 218.45248004 -143.71308183 219.41692166 -145.36425781 220.38232422 C-147.36535217 221.55090222 -149.36949366 222.71401569 -151.375 223.875 C-152.43460938 224.49117187 -153.49421875 225.10734375 -154.5859375 225.7421875 C-157 227 -157 227 -159 227 C-159.43828125 225.77410156 -159.8765625 224.54820312 -160.328125 223.28515625 C-171.81585335 191.81311555 -187.62696073 163.21842698 -208.5390625 137.0859375 C-211.44082495 133.44721951 -214.23181693 129.74078793 -217 126 C-205.36872089 118.63038388 -193.39799619 111.84279802 -181.45947266 104.98779297 C-175.96860776 101.83277377 -170.48449865 98.6660685 -165 95.5 C-158.47774118 91.73623284 -151.95486227 87.97355372 -145.4296875 84.21484375 C-133.94693103 77.59858883 -122.48039099 70.95609989 -111.03857422 64.26928711 C-102.61430661 59.34948718 -94.16446104 54.47477862 -85.7109375 49.60546875 C-78.4604851 45.42650872 -71.22511731 41.22259494 -64 37 C-54.6076684 31.51081412 -45.19088144 26.06526772 -35.76367188 20.63623047 C-26.95191329 15.55815509 -18.1639486 10.44022211 -9.38671875 5.30273438 C-8.44441406 4.75166016 -7.50210937 4.20058594 -6.53125 3.6328125 C-5.70173828 3.14699707 -4.87222656 2.66118164 -4.01757812 2.16064453 C-2.69953424 1.40241841 -1.3600431 0.68002155 0 0 Z " fill="#EC1C24" transform="translate(1260,396)"/>
<path d="M0 0 C15.59671536 8.46953569 31.14518212 17.04709051 46.40795898 26.10717773 C52.8015907 29.89969964 59.24347958 33.60638024 65.6875 37.3125 C77.5124656 44.11768663 89.27266534 51.02809776 101 58 C99.65544302 61.54434427 98.08771656 64.80799193 96.234375 68.11328125 C95.68144775 69.10126709 95.12852051 70.08925293 94.55883789 71.10717773 C93.96192139 72.16493408 93.36500488 73.22269043 92.75 74.3125 C92.12665771 75.42117432 91.50331543 76.52984863 90.86108398 77.67211914 C85.52126695 87.13940877 80.05876975 96.53299965 74.5625 105.91015625 C70.8678669 112.21570419 67.21147319 118.54294436 63.5625 124.875 C62.93996338 125.95515381 62.31742676 127.03530762 61.67602539 128.14819336 C60.41423174 130.33796334 59.15259466 132.52782355 57.89111328 134.71777344 C54.76319852 140.14659942 51.63141552 145.57319281 48.5 151 C47.24998121 153.16665583 45.99998122 155.3333225 44.75 157.5 C37.25 170.5 37.25 170.5 35.37524414 173.74951172 C34.1243552 175.91776264 32.87354148 178.08605697 31.62280273 180.25439453 C28.51201665 185.64717915 25.39995762 191.03922093 22.28515625 196.4296875 C16.14707335 207.05549308 10.02796034 217.6914913 3.94909668 228.35125732 C-1.5576288 238.00679909 -7.09198331 247.64554351 -12.6875 257.25 C-13.25154541 258.21953613 -13.81559082 259.18907227 -14.39672852 260.18798828 C-17.50960121 265.51775339 -20.7001221 270.78386647 -24 276 C-27.88618682 274.15989002 -31.04698769 271.69049746 -34.375 269 C-61.56859915 247.39295833 -91.96332203 230.01222599 -125 219 C-124.40500425 214.86001766 -123.02258169 211.90665737 -120.9296875 208.30078125 C-120.28829834 207.18751465 -119.64690918 206.07424805 -118.98608398 204.92724609 C-118.28250636 203.72226239 -117.5788085 202.51734887 -116.875 201.3125 C-116.14786085 200.05588184 -115.42138967 198.79887694 -114.69555664 197.54150391 C-113.2003235 194.95372136 -111.7012215 192.36824311 -110.19873047 189.78466797 C-107.54390233 185.21846802 -104.90932376 180.6406669 -102.27392578 176.06323242 C-99.80625649 171.77909346 -97.33244827 167.49851216 -94.85888672 163.21777344 C-91.73675395 157.81329355 -88.61858796 152.40652588 -85.5 147 C-84.25001878 144.8333225 -83.00001879 142.66665583 -81.75 140.5 C-81.13125 139.4275 -80.5125 138.355 -79.875 137.25 C-44.25 75.5 -44.25 75.5 -42.37524414 72.25048828 C-41.1243552 70.08223736 -39.87354148 67.91394303 -38.62280273 65.74560547 C-35.51201665 60.35282085 -32.39995762 54.96077907 -29.28515625 49.5703125 C-28.04422456 47.42190173 -26.80333908 45.27346426 -25.5625 43.125 C-24.95575439 42.07505859 -24.34900879 41.02511719 -23.72387695 39.94335938 C-20.31887876 34.04404889 -16.93401234 28.13385425 -13.5703125 22.2109375 C-12.83131789 20.91128474 -12.09230439 19.61164271 -11.35327148 18.31201172 C-9.93245226 15.81308983 -8.51598314 13.31176776 -7.10180664 10.80908203 C-6.46364014 9.68614746 -5.82547363 8.56321289 -5.16796875 7.40625 C-4.60360107 6.40916016 -4.0392334 5.41207031 -3.45776367 4.38476562 C-2 2 -2 2 0 0 Z " fill="#EC1C24" transform="translate(1042,220)"/>
<path d="M0 0 C82.83 0 165.66 0 251 0 C251 38.61 251 77.22 251 117 C168.17 117 85.34 117 0 117 C0.55555214 110.33337427 1.09292203 104.20271486 2.15600586 97.70092773 C6.6994701 68.21070669 5.35221083 37.03416372 0.3671875 7.69921875 C0 5 0 5 0 0 Z " fill="#EC1C24" transform="translate(1112,659)"/>
<path d="M0 0 C1.6934305 3.386861 1.28399619 7.24670238 1.38600159 10.97842407 C1.41544088 11.92031157 1.44488017 12.86219907 1.47521156 13.83262861 C1.57332326 17.00890515 1.66468389 20.18534071 1.75610352 23.36181641 C1.82481895 25.63170048 1.89394067 27.90157229 1.96343994 30.1714325 C2.15157257 36.35595175 2.33380734 42.54063239 2.51489758 48.72536135 C2.70534007 55.20024964 2.90071302 61.67498928 3.09544373 68.14974976 C3.42222227 79.03984376 3.74537504 89.93004045 4.06616211 100.8203125 C4.39543275 111.99847607 4.72797938 123.17653574 5.06420898 134.35449219 C5.08485523 135.04089026 5.10550148 135.72728833 5.12677336 136.43448634 C5.14738548 137.11974412 5.16799759 137.8050019 5.18923432 138.51102507 C5.55306859 150.60775814 5.91410228 162.7045727 6.27366447 174.80143356 C6.42642058 179.94057841 6.57998805 185.07969805 6.7341938 190.21879959 C6.91621556 196.29091026 7.09576709 202.36308937 7.27348328 208.43532753 C7.33877822 210.65396196 7.40486206 212.87257336 7.47183037 215.09115791 C7.83269896 227.0652706 8.09829607 239.01984376 8 251 C-3.85870627 251.39562767 -15.71754309 251.78706899 -27.5765543 252.17345428 C-33.08569052 252.35307615 -38.5947755 252.53403374 -44.10375977 252.71826172 C-49.43997255 252.89665915 -54.77629821 253.0712638 -60.11271477 253.24345398 C-62.12845055 253.30912158 -64.14414546 253.37605876 -66.15979195 253.44441223 C-80.44452476 253.92764165 -94.70725632 254.08508546 -109 254 C-110.69524033 209.93960677 -112.05765579 165.87066192 -113.37096381 121.79751098 C-113.59764277 114.20235202 -113.82883279 106.60733486 -114.06090128 99.01233894 C-114.28900284 91.54003045 -114.51380085 84.06762696 -114.73617589 76.59514588 C-114.86720488 72.19412377 -114.99943682 67.79314757 -115.13515091 63.39226723 C-115.75488281 43.25345544 -116.16574913 23.14998499 -116 3 C-114.59739028 3.15021914 -113.1947824 3.30045537 -111.79217529 3.45069885 C-111.01109783 3.53435983 -110.23002037 3.6180208 -109.4252739 3.70421696 C-107.80851149 3.87760352 -106.19183143 4.05175825 -104.57519531 4.22631836 C-102.05107966 4.49425197 -99.52579282 4.74837971 -97 5 C-96.11521973 5.09265137 -95.23043945 5.18530273 -94.31884766 5.28076172 C-85.17674838 6.15406987 -76.05110932 6.24124786 -66.875 6.25 C-66.04184265 6.25133942 -65.2086853 6.25267883 -64.35028076 6.25405884 C-45.30799098 6.247455 -26.72951556 4.4835195 -8.07421875 0.55078125 C-5.29662028 0.0531429 -2.81170384 -0.11078008 0 0 Z " fill="#EC1C24" transform="translate(877,1005)"/>
<path d="M0 0 C25.70019605 0.4920023 51.39593142 1.11259044 77.08966064 1.86895752 C80.07117785 1.95671288 83.05274114 2.04251769 86.03436279 2.12664795 C89.58696289 2.22710011 93.13940848 2.33191415 96.691782 2.44007492 C98.64313029 2.49855326 100.59459829 2.55299306 102.54606628 2.60733032 C104.30712456 2.66248306 104.30712456 2.66248306 106.10375977 2.71875 C107.63771141 2.76418945 107.63771141 2.76418945 109.20265198 2.81054688 C111.88630238 2.99229972 114.37195657 3.44825287 117 4 C117.11316159 16.69179011 116.75580585 29.35896923 116.37329102 42.04394531 C116.30577114 44.33682237 116.23843411 46.62970482 116.17126465 48.92259216 C115.98949868 55.10565844 115.80486049 61.28863562 115.61942792 67.4715929 C115.50367143 71.33596404 115.38855474 75.20035369 115.27366447 79.06475067 C114.89341135 91.85463754 114.51131272 104.64446671 114.12677336 117.43422535 C114.095804 118.46427648 114.095804 118.46427648 114.06420898 119.51513672 C114.03320099 120.5464524 114.03320099 120.5464524 114.00156658 121.59860274 C113.66551738 132.77937178 113.33400912 143.96027035 113.00451494 155.14123431 C112.66554527 166.64196364 112.32311767 178.14258482 111.97731918 189.64311099 C111.78346507 196.09222654 111.59103395 202.54137696 111.40210152 208.99063873 C111.22471243 215.04173157 111.0430075 221.09267929 110.85791779 227.14354134 C110.79063049 229.3675754 110.72490753 231.59165741 110.66083336 233.81578636 C110.57340663 236.84219919 110.48043103 239.86839107 110.38600159 242.89459229 C110.36167779 243.78221292 110.33735399 244.66983355 110.31229311 245.58435178 C110.20277517 248.94093423 110.06819162 251.79542514 109 255 C107.81748657 254.78851318 107.81748657 254.78851318 106.61108398 254.57275391 C71.34506699 248.32450508 37.63890963 246.47390846 2.0065918 250.72460938 C-1.01473224 251.00134941 -3.96797322 251.01855809 -7 251 C-7.2715873 227.63746078 -6.52999261 204.3110536 -5.82135701 180.9623208 C-5.65364362 175.41098519 -5.49026272 169.85952175 -5.32627869 164.30807495 C-5.05071866 155.00054814 -4.77211481 145.69311655 -4.49145508 136.38574219 C-4.16871499 125.68217399 -3.85008128 114.97848989 -3.533804 104.27472889 C-3.19427816 92.78535842 -2.85185795 81.29607553 -2.50854945 69.80681753 C-2.41095231 66.53450342 -2.31387073 63.26217436 -2.21690559 59.98984146 C-2.06356487 54.82011718 -1.90825199 49.65045548 -1.75151634 44.48083305 C-1.69485872 42.60295812 -1.63880496 40.72506483 -1.58345795 38.8471508 C-1.20098632 25.88987595 -0.65368402 12.94642574 0 0 Z " fill="#EC1C24" transform="translate(768,177)"/>
<path d="M0 0 C22.11 0 44.22 0 67 0 C67 25.41 67 50.82 67 77 C44.89 77 22.78 77 0 77 C0 51.59 0 26.18 0 0 Z " fill="#0E6333" transform="translate(4665,1497)"/>
<path d="M0 0 C22.11 0 44.22 0 67 0 C67 25.41 67 50.82 67 77 C44.89 77 22.78 77 0 77 C0 51.59 0 26.18 0 0 Z " fill="#0E6333" transform="translate(2780,1497)"/>
</svg>
