<?xml version="1.0" encoding="UTF-8"?>
<!DOCTYPE svg PUBLIC "-//W3C//DTD SVG 1.1//EN" "http://www.w3.org/Graphics/SVG/1.1/DTD/svg11.dtd">
<!-- Creator: CorelDRAW -->
<svg xmlns="http://www.w3.org/2000/svg" xml:space="preserve" width="4.98135in" height="5.1181in" version="1.1" style="shape-rendering:geometricPrecision; text-rendering:geometricPrecision; image-rendering:optimizeQuality; fill-rule:evenodd; clip-rule:evenodd"
viewBox="0 0 4981 5118"
 xmlns:xlink="http://www.w3.org/1999/xlink">
 <defs>
  <style type="text/css">
   <![CDATA[
    .fil2 {fill:#FEFEFE}
    .fil1 {fill:#B89B42}
    .fil3 {fill:#398950}
    .fil4 {fill:#236A9F}
    .fil0 {fill:url(#id0)}
   ]]>
  </style>
  <radialGradient id="id0" gradientUnits="userSpaceOnUse" gradientTransform="matrix(1.41421 -0 -0 1.41421 -1032 -1114)" cx="2490.67" cy="2688.41" r="2058.53" fx="2490.67" fy="2688.41">
   <stop offset="0" style="stop-opacity:1; stop-color:#68CADB"/>
   <stop offset="0.768627" style="stop-opacity:1; stop-color:#225F97"/>
   <stop offset="1" style="stop-opacity:1; stop-color:#3A4C77"/>
  </radialGradient>
 </defs>
 <g id="Layer_x0020_1">
  <metadata id="CorelCorpID_0Corel-Layer"/>
  <g id="UIN_x0020_Syarif_x0020_Hidayatullah_x0020_Logo_x0020__x0028_KoleksiLogo.com_x0029_.cdr">
   <path class="fil0" d="M2491 679c1109,0 2009,900 2009,2009 0,1110 -900,2010 -2009,2010 -1110,0 -2010,-900 -2010,-2010 0,-1109 900,-2009 2010,-2009z"/>
   <path class="fil1" d="M2491 1118c160,0 317,5 470,15 -234,-177 -472,-321 -701,-431 -123,129 -245,277 -361,440 190,-16 388,-24 592,-24zm-257 -429l0 0c-122,136 -243,288 -358,455 -386,33 -736,96 -1026,182 -107,-279 -108,-522 21,-683 219,-275 757,-238 1363,46zm-585 813l0 0c69,-119 140,-232 214,-340 -381,38 -722,109 -998,203 96,233 262,489 486,742 81,-199 181,-402 298,-605zm604 -834l0 0c486,-531 995,-791 1305,-612 270,156 327,610 194,1178 736,146 1229,416 1229,725 0,242 -303,460 -787,614 111,284 115,529 -13,690 -225,282 -797,228 -1444,-87 -510,591 -1058,890 -1385,701 -275,-158 -329,-624 -187,-1206 -700,-149 -1165,-412 -1165,-712 0,-243 305,-462 793,-615 -149,-324 -169,-606 -27,-784 229,-288 822,-226 1487,108zm1493 593l0 0c-35,140 -80,287 -136,437 263,286 458,575 567,834 403,-149 651,-351 651,-573 0,-293 -432,-551 -1082,-698zm-145 461l0 0c-88,231 -202,471 -340,710 -67,115 -136,225 -207,330 407,-36 771,-109 1063,-209 -86,-256 -264,-545 -516,-831zm-560 1058l0 0c-92,134 -188,259 -285,374 588,266 1106,295 1320,26 113,-142 126,-349 54,-588 -306,91 -678,156 -1089,188zm-1869 -138l0 0c-615,-149 -1019,-399 -1019,-683 0,-223 251,-426 659,-575 114,236 295,492 529,746 -71,176 -128,348 -169,512zm491 -1132l0 0c71,-123 146,-240 223,-350 193,-18 396,-28 605,-28 169,0 334,7 493,19 20,15 39,30 59,45 204,162 385,333 540,507 -83,233 -196,478 -336,721 -69,119 -141,233 -216,340 -173,14 -354,22 -540,22 -133,0 -263,-4 -390,-12 -66,-46 -132,-96 -197,-147 -203,-161 -383,-331 -537,-503 78,-201 177,-408 296,-614zm616 -828l0 0c449,-462 916,-679 1211,-508 254,146 324,548 226,1053 -223,-43 -468,-74 -727,-92 -236,-182 -477,-334 -710,-453zm1431 572l0 0c-212,-46 -447,-81 -697,-101 13,10 26,20 40,31 200,159 381,326 539,495 51,-147 91,-290 118,-425zm-691 1527l0 0c-171,13 -347,19 -528,19 -125,0 -247,-3 -366,-9 204,143 409,260 607,352 98,-110 194,-231 287,-362zm-306 383l0 0c-202,-100 -411,-226 -619,-374 -323,-18 -625,-56 -894,-111 -107,518 -39,932 220,1081 313,181 820,-74 1293,-596zm-1507 -514l0 0c257,60 550,102 864,122 -59,-42 -118,-87 -176,-133 -200,-158 -380,-324 -536,-492 -67,174 -117,343 -152,503z"/>
   <path class="fil2" d="M2491 5079c0,0 -1515,-509 -2363,-464l0 -2203c0,0 1378,-24 2363,383 984,-407 2362,-383 2362,-383l0 2203c-848,-45 -2362,464 -2362,464z"/>
   <path class="fil3" d="M2478 5116c-4,-1 -1507,-507 -2348,-462 -21,1 -39,-16 -40,-37 0,-1 0,-1 0,-2l0 0 0 -2203c0,-21 17,-39 38,-39 1,0 2,0 3,0 72,-1 1395,-13 2360,380 991,-403 2358,-380 2362,-380 22,1 39,18 39,39l0 0 0 2203c0,22 -18,39 -39,39 -2,0 -3,0 -5,0 -840,-44 -2341,461 -2345,462 -8,3 -17,3 -25,0zm-2311 -541l0 0c817,-27 2181,417 2324,464 142,-47 1506,-491 2323,-464l0 -2125c-228,0 -1426,17 -2309,381 -9,4 -19,4 -29,0 -882,-364 -2081,-381 -2309,-381l0 2125z"/>
   <path class="fil4" d="M2895 4453l0 -908 438 0 0 908 -438 0zm0 -1006l0 0 0 -411 717 0c0,0 478,-16 664,411l-1381 0zm1416 98l0 0c9,32 16,67 22,103l0 807 -437 0 0 -770c0,0 8,-88 -96,-140l511 0z"/>
   <path class="fil4" d="M2086 3038l0 409 -438 0 0 -409 438 0zm0 507l0 0 0 910 -717 0c0,0 -618,21 -721,-612l0 -298 438 0 0 261c0,0 -18,177 295,177l267 0 0 -438 438 0zm-1438 -98l0 0 0 -411 438 0 0 411 -438 0z"/>
   <path class="fil4" d="M2272 3038l437 0 0 409 -437 0 0 -409zm437 507l0 0 0 910 -437 0 0 -910 437 0z"/>
  </g>
 </g>
</svg>
